<?xml version="1.0" encoding="iso-8859-1"?>
<!-- Generator: Adobe Illustrator 19.0.0, SVG Export Plug-In . SVG Version: 6.00 Build 0)  -->
<svg version="1.1" id="Capa_1" xmlns="http://www.w3.org/2000/svg" xmlns:xlink="http://www.w3.org/1999/xlink" x="0px" y="0px"
   viewBox="0 0 480 480" style="enable-background:new 0 0 480 480;" xml:space="preserve">
<g>
  <g>
    <g>
      <path d="M232,104H8c-4.418,0-8,3.582-8,8v64c0,4.418,3.582,8,8,8h24v16H8c-4.418,0-8,3.582-8,8v64c0,4.418,3.582,8,8,8h24v16H8
        c-4.418,0-8,3.582-8,8v64c0,4.418,3.582,8,8,8h224c4.418,0,8-3.582,8-8v-64c0-4.418-3.582-8-8-8h-24v-16h24c4.418,0,8-3.582,8-8
        v-64c0-4.418-3.582-8-8-8h-24v-16h24c4.418,0,8-3.582,8-8v-64C240,107.582,236.418,104,232,104z M224,312v48H16v-48H224z M48,296
        v-16h144v16H48z M224,216v48H16v-48H224z M48,200v-16h144v16H48z M224,168H16v-48h208V168z"/>
      <path d="M32,152h128c4.418,0,8-3.582,8-8s-3.582-8-8-8H32c-4.418,0-8,3.582-8,8S27.582,152,32,152z"/>
      <path d="M192,152h16c4.418,0,8-3.582,8-8s-3.582-8-8-8h-16c-4.418,0-8,3.582-8,8S187.582,152,192,152z"/>
      <path d="M32,248h128c4.418,0,8-3.582,8-8s-3.582-8-8-8H32c-4.418,0-8,3.582-8,8S27.582,248,32,248z"/>
      <path d="M192,248h16c4.418,0,8-3.582,8-8s-3.582-8-8-8h-16c-4.418,0-8,3.582-8,8S187.582,248,192,248z"/>
      <path d="M32,344h128c4.418,0,8-3.582,8-8s-3.582-8-8-8H32c-4.418,0-8,3.582-8,8S27.582,344,32,344z"/>
      <path d="M192,344h16c4.418,0,8-3.582,8-8s-3.582-8-8-8h-16c-4.418,0-8,3.582-8,8S187.582,344,192,344z"/>
      <path d="M472,40h-60.688l-13.656-13.656c-1.5-1.5-3.534-2.344-5.656-2.344h-32c-4.418,0-8,3.582-8,8v96c0,4.418,3.582,8,8,8h112
        c4.418,0,8-3.582,8-8V48C480,43.582,476.418,40,472,40z M464,120h-96V40h20.688l13.656,13.656c1.5,1.5,3.534,2.344,5.656,2.344
        h56V120z"/>
      <path d="M472,200h-60.688l-13.656-13.656c-1.5-1.5-3.534-2.344-5.656-2.344h-32c-4.418,0-8,3.582-8,8v96c0,4.418,3.582,8,8,8h112
        c4.418,0,8-3.582,8-8v-80C480,203.582,476.418,200,472,200z M464,280h-96v-80h20.688l13.656,13.656
        c1.5,1.5,3.534,2.344,5.656,2.344h56V280z"/>
      <path d="M472,360h-60.688l-13.656-13.656c-1.5-1.5-3.534-2.344-5.656-2.344h-32c-4.418,0-8,3.582-8,8v96c0,4.418,3.582,8,8,8h112
        c4.418,0,8-3.582,8-8v-80C480,363.582,476.418,360,472,360z M464,440h-96v-80h20.688l13.656,13.656
        c1.5,1.5,3.534,2.344,5.656,2.344h56V440z"/>
      <polygon points="296,232 256,232 256,248 296,248 296,408 336,408 336,392 312,392 312,248 336,248 336,232 312,232 312,88 
        336,88 336,72 296,72       "/>
    </g>
  </g>
</g>
<g>
</g>
<g>
</g>
<g>
</g>
<g>
</g>
<g>
</g>
<g>
</g>
<g>
</g>
<g>
</g>
<g>
</g>
<g>
</g>
<g>
</g>
<g>
</g>
<g>
</g>
<g>
</g>
<g>
</g>
</svg>
