<?xml version="1.0" encoding="iso-8859-1"?>
<!-- Generator: Adobe Illustrator 19.0.0, SVG Export Plug-In . SVG Version: 6.00 Build 0)  -->
<svg version="1.1" id="Capa_1" xmlns="http://www.w3.org/2000/svg" xmlns:xlink="http://www.w3.org/1999/xlink" x="0px" y="0px"
   viewBox="0 0 511.989 511.989" style="enable-background:new 0 0 511.989 511.989;" xml:space="preserve">
<g>
  <g>
    <path d="M508.869,88.456L423.536,3.123c-4.16-4.16-10.923-4.16-15.083,0L3.12,408.456c-4.16,4.16-4.16,10.923,0,15.083
      l85.333,85.333c2.091,2.069,4.821,3.115,7.552,3.115s5.461-1.045,7.531-3.115l405.333-405.333
      C513.029,99.379,513.029,92.616,508.869,88.456z M96.005,486.237l-70.251-70.251L416.005,25.736l70.251,70.251L96.005,486.237z"/>
  </g>
</g>
<g>
  <g>
    <path d="M60.869,387.123l-10.667-10.667c-4.16-4.16-10.923-4.16-15.083,0c-4.16,4.16-4.16,10.923,0,15.083l10.667,10.667
      c2.091,2.069,4.821,3.115,7.552,3.115c2.731,0,5.461-1.045,7.531-3.115C65.029,398.045,65.029,391.283,60.869,387.123z"/>
  </g>
</g>
<g>
  <g>
    <path d="M124.869,365.789l-32-32c-4.16-4.16-10.923-4.16-15.083,0c-4.16,4.16-4.16,10.923,0,15.083l32,32
      c2.091,2.069,4.821,3.115,7.552,3.115c2.731,0,5.461-1.045,7.531-3.115C129.029,376.712,129.029,369.949,124.869,365.789z"/>
  </g>
</g>
<g>
  <g>
    <path d="M146.203,301.789l-10.667-10.667c-4.16-4.16-10.923-4.16-15.083,0c-4.16,4.16-4.16,10.923,0,15.083l10.667,10.667
      c2.091,2.069,4.821,3.115,7.552,3.115s5.461-1.045,7.531-3.115C150.363,312.712,150.363,305.949,146.203,301.789z"/>
  </g>
</g>
<g>
  <g>
    <path d="M210.203,280.456l-32-32c-4.16-4.16-10.923-4.16-15.083,0c-4.16,4.16-4.16,10.923,0,15.083l32,32
      c2.091,2.069,4.821,3.115,7.552,3.115c2.731,0,5.461-1.045,7.531-3.115C214.363,291.379,214.363,284.616,210.203,280.456z"/>
  </g>
</g>
<g>
  <g>
    <path d="M231.536,216.456l-10.667-10.667c-4.16-4.16-10.923-4.16-15.083,0c-4.16,4.16-4.16,10.923,0,15.083l10.667,10.667
      c2.091,2.069,4.821,3.115,7.552,3.115s5.461-1.045,7.531-3.115C235.696,227.379,235.696,220.616,231.536,216.456z"/>
  </g>
</g>
<g>
  <g>
    <path d="M295.536,195.123l-32-32c-4.16-4.16-10.923-4.16-15.083,0c-4.16,4.16-4.16,10.923,0,15.083l32,32
      c2.091,2.069,4.821,3.115,7.552,3.115s5.461-1.045,7.531-3.115C299.696,206.045,299.696,199.283,295.536,195.123z"/>
  </g>
</g>
<g>
  <g>
    <path d="M316.869,131.123l-10.667-10.667c-4.16-4.16-10.923-4.16-15.083,0c-4.16,4.16-4.16,10.923,0,15.083l10.667,10.667
      c2.091,2.069,4.821,3.115,7.552,3.115c2.731,0,5.461-1.045,7.531-3.115C321.029,142.045,321.029,135.283,316.869,131.123z"/>
  </g>
</g>
<g>
  <g>
    <path d="M380.869,109.789l-32-32c-4.16-4.16-10.923-4.16-15.083,0c-4.16,4.16-4.16,10.923,0,15.083l32,32
      c2.091,2.069,4.821,3.115,7.552,3.115c2.731,0,5.461-1.045,7.531-3.115C385.029,120.712,385.029,113.949,380.869,109.789z"/>
  </g>
</g>
<g>
  <g>
    <path d="M402.203,45.789l-10.667-10.667c-4.16-4.16-10.923-4.16-15.083,0c-4.16,4.16-4.16,10.923,0,15.083l10.667,10.667
      c2.091,2.069,4.821,3.115,7.552,3.115s5.461-1.045,7.531-3.115C406.363,56.712,406.363,49.949,402.203,45.789z"/>
  </g>
</g>
<g>
</g>
<g>
</g>
<g>
</g>
<g>
</g>
<g>
</g>
<g>
</g>
<g>
</g>
<g>
</g>
<g>
</g>
<g>
</g>
<g>
</g>
<g>
</g>
<g>
</g>
<g>
</g>
<g>
</g>
</svg>
