<?xml version="1.0" encoding="iso-8859-1"?>
<!-- Generator: Adobe Illustrator 19.0.0, SVG Export Plug-In . SVG Version: 6.00 Build 0)  -->
<svg version="1.1" id="Capa_1" xmlns="http://www.w3.org/2000/svg" xmlns:xlink="http://www.w3.org/1999/xlink" x="0px" y="0px"
   viewBox="0 0 490 490" style="enable-background:new 0 0 490 490;" xml:space="preserve">
<g>
  <path d="M165.035,161.062l14.064-25.991l2.574-5.85c1.281-3.195,2.391-6.478,3.32-9.835c2.219-8.017,3.41-16.461,3.41-25.185
    C188.402,42.176,146.227,0,94.201,0C42.175,0,0,42.176,0,94.201c0,8.724,1.191,17.168,3.41,25.185
    c0.888,3.21,1.937,6.353,3.148,9.416l2.856,6.491l84.787,156.675l70.721-130.698c0.013,0.005,0.018,0.007,0.031,0.011
    L165.035,161.062z M155.477,111.217c-0.579,2.09-1.271,4.167-2.061,6.181l-1.846,4.195l-57.37,106.025L36.944,121.818l-2.094-4.76
    c-0.726-1.885-1.372-3.848-1.924-5.843c-1.526-5.513-2.3-11.238-2.3-17.013c0-35.056,28.52-63.576,63.576-63.576
    c35.056,0,63.576,28.52,63.576,63.576C157.777,99.977,157.004,105.701,155.477,111.217z"/>
  <path d="M191.436,139.239l-13.099,27.694c4.022,1.899,8.374,4.142,12.785,6.774l15.701-26.288
    C201.515,144.248,196.266,141.527,191.436,139.239z"/>
  <path d="M224.514,211.046l29.818-6.939c-1.51-6.505-4.053-12.86-7.537-18.916l-26.528,15.313
    C222.256,203.943,223.676,207.487,224.514,211.046z"/>
  <path d="M255.707,224.729l-30.505-2.692c-0.329,3.709-1.226,7.611-2.677,11.574l28.771,10.497
    C253.658,237.618,255.139,231.099,255.707,224.729z"/>
  <path d="M212.76,190.574l22.43-20.875c-3.963-4.247-8.568-8.404-13.682-12.352l-18.692,24.255
    C206.599,184.518,209.949,187.539,212.76,190.574z"/>
  <path d="M223.183,315.288l0.06-2.467l-30.595-1.316c-0.06,1.271-0.09,2.542-0.09,3.783c0,5.443,0.523,10.767,1.57,15.806
    l29.997-6.221C223.497,321.882,223.183,318.652,223.183,315.288z"/>
  <path d="M195.324,292.857l29.788,7.088c1.002-4.202,2.408-8.568,4.172-12.965l-28.412-11.425
    C198.539,281.373,196.67,287.19,195.324,292.857z"/>
  <path d="M297.966,362.047l0.987,30.595c5.458-0.165,11.141-0.568,17.047-1.211l-3.32-30.446
    C307.581,361.539,302.676,361.883,297.966,362.047z"/>
  <path d="M241.067,264.445l2.094-3.409l-26.288-15.701l-1.615,2.662c-2.497,3.903-4.785,7.776-6.849,11.604l26.946,14.565
    C237.089,270.965,238.989,267.72,241.067,264.445z"/>
  <path d="M264.096,390.444c5.503,0.957,11.365,1.645,17.541,2.004l1.794-30.565c-4.95-0.299-9.645-0.837-14.071-1.615
    L264.096,390.444z"/>
  <path d="M227.968,335.595l-26.917,14.595c3.2,5.907,7.327,11.38,12.247,16.24l21.533-21.772
    C232.05,341.905,229.732,338.854,227.968,335.595z"/>
  <path d="M229.179,378.362c5.204,2.976,11.006,5.563,17.212,7.656l9.81-29.01c-4.337-1.466-8.314-3.23-11.828-5.234L229.179,378.362
    z"/>
  <circle cx="94.201" cy="93.348" r="41.679"/>
  <path d="M395.799,198.033c-52.026,0-94.201,42.176-94.201,94.201c0,8.724,1.191,17.168,3.41,25.185
    c0.889,3.21,1.938,6.353,3.149,9.416l2.855,6.491L395.799,490l84.897-156.897l2.575-5.85c1.28-3.195,2.39-6.478,3.319-9.835
    c2.22-8.017,3.41-16.461,3.41-25.185C490,240.208,447.824,198.033,395.799,198.033z M457.075,309.249
    c-0.578,2.091-1.272,4.168-2.062,6.183l-1.846,4.194l-57.37,106.026L338.541,319.85l-2.094-4.761
    c-0.725-1.884-1.372-3.847-1.924-5.841c-1.526-5.514-2.3-11.239-2.3-17.014c0-35.056,28.52-63.576,63.576-63.576
    c35.056,0,63.576,28.52,63.576,63.576C459.375,298.01,458.601,303.734,457.075,309.249z"/>
  <circle cx="395.799" cy="291.381" r="41.679"/>
</g>
<g>
</g>
<g>
</g>
<g>
</g>
<g>
</g>
<g>
</g>
<g>
</g>
<g>
</g>
<g>
</g>
<g>
</g>
<g>
</g>
<g>
</g>
<g>
</g>
<g>
</g>
<g>
</g>
<g>
</g>
</svg>
