<?xml version="1.0" encoding="iso-8859-1"?>
<!-- Generator: Adobe Illustrator 19.0.0, SVG Export Plug-In . SVG Version: 6.00 Build 0)  -->
<svg version="1.1" id="Capa_1" xmlns="http://www.w3.org/2000/svg" xmlns:xlink="http://www.w3.org/1999/xlink" x="0px" y="0px"
   viewBox="0 0 512.001 512.001" style="enable-background:new 0 0 512.001 512.001;" xml:space="preserve">
<g>
  <g>
    <circle cx="256" cy="256.011" r="20"/>
  </g>
</g>
<g>
  <g>
    <path d="M256,176.014c-44.112,0-80,35.888-80,80s35.888,80,80,80s80-35.888,80-80S300.112,176.014,256,176.014z M256,306.014
      c-27.57,0-50-22.43-50-50s22.43-50,50-50s50,22.43,50,50S283.57,306.014,256,306.014z"/>
  </g>
</g>
<g>
  <g>
    <path d="M509.021,247.009c-28.766-38.548-66.536-70.497-109.226-92.392c-44.768-22.96-93.147-34.603-143.796-34.603
      c-50.649,0-99.028,11.642-143.796,34.602c-42.69,21.896-80.46,53.844-109.226,92.393L0,251.042v9.96l2.979,3.991
      c28.766,38.549,66.535,70.498,109.226,92.393c44.768,22.96,93.147,34.602,143.796,34.602c50.649,0,99.028-11.642,143.796-34.602
      c42.69-21.895,80.46-53.844,109.226-92.393l2.978-3.991V251L509.021,247.009z M256,361.986
      c-87.229,0-167.517-38.478-222.03-105.986C88.483,188.493,168.771,150.014,256,150.014s167.517,38.479,222.03,105.986
      C423.518,323.509,343.229,361.986,256,361.986z"/>
  </g>
</g>
<g>
</g>
<g>
</g>
<g>
</g>
<g>
</g>
<g>
</g>
<g>
</g>
<g>
</g>
<g>
</g>
<g>
</g>
<g>
</g>
<g>
</g>
<g>
</g>
<g>
</g>
<g>
</g>
<g>
</g>
</svg>
