<?xml version="1.0" encoding="iso-8859-1"?>
<!-- Generator: Adobe Illustrator 19.0.0, SVG Export Plug-In . SVG Version: 6.00 Build 0)  -->
<svg version="1.1" id="Capa_1" xmlns="http://www.w3.org/2000/svg" xmlns:xlink="http://www.w3.org/1999/xlink" x="0px" y="0px"
   viewBox="0 0 512 512" style="enable-background:new 0 0 512 512;" xml:space="preserve">
<g>
  <g>
    <path d="M86.385,61.053c-20.677,0-37.498,16.821-37.498,37.498c0,20.677,16.821,37.498,37.498,37.498
      c20.677,0,37.498-16.821,37.498-37.498C123.883,77.875,107.062,61.053,86.385,61.053z M86.385,106.052c-4.136,0-7.5-3.364-7.5-7.5
      c0-4.136,3.364-7.5,7.5-7.5c4.136,0,7.5,3.364,7.5,7.5C93.884,102.688,90.521,106.052,86.385,106.052z"/>
  </g>
</g>
<g>
  <g>
    <path d="M424.65,307.262c-20.677,0-37.498,16.821-37.498,37.498c0,20.677,16.821,37.499,37.498,37.499
      c20.677,0,37.498-16.822,37.498-37.499C462.148,324.084,445.327,307.262,424.65,307.262z M424.65,352.262
      c-4.136,0-7.5-3.365-7.5-7.501s3.364-7.5,7.5-7.5c4.136,0,7.5,3.364,7.5,7.5S428.786,352.262,424.65,352.262z"/>
  </g>
</g>
<g>
  <g>
    <path d="M486.689,283.684c-33.677-33.677-88.473-33.676-122.15,0c-27.913,27.912-33.358,71.126-13.242,105.09l48.002,81.051
      H108.525c-25.669,0-46.553-20.884-46.553-46.553c0-25.669,20.883-46.553,46.553-46.553h140.849
      c42.21,0,76.552-34.342,76.552-76.553c0-42.211-34.341-76.552-76.552-76.552H112.702l48.001-81.05
      c20.115-33.964,14.669-77.179-13.242-105.09c-16.314-16.313-38.004-25.299-61.075-25.299S41.624,21.16,25.31,37.474
      C-2.602,65.386-8.047,108.602,12.068,142.565l65.769,111.048h171.537c25.669,0,46.553,20.884,46.553,46.554
      c0,25.669-20.883,46.553-46.553,46.553H108.525c-42.21,0-76.552,34.342-76.552,76.552c0,42.211,34.341,76.552,76.552,76.552
      h325.64l65.768-111.049C520.047,354.81,514.601,311.596,486.689,283.684z M37.88,127.279
      c-13.128-22.168-9.575-50.374,8.644-68.591c10.648-10.649,24.804-16.512,39.861-16.512s29.215,5.864,39.863,16.512
      c18.217,18.217,21.771,46.423,8.644,68.591l-48.506,81.901L37.88,127.279z M474.12,373.487l-48.506,81.902l-48.506-81.902
      c-13.128-22.168-9.575-50.373,8.644-68.591c10.991-10.99,25.427-16.484,39.863-16.484s28.873,5.495,39.862,16.484
      C483.696,323.114,487.249,351.319,474.12,373.487z"/>
  </g>
</g>
<g>
</g>
<g>
</g>
<g>
</g>
<g>
</g>
<g>
</g>
<g>
</g>
<g>
</g>
<g>
</g>
<g>
</g>
<g>
</g>
<g>
</g>
<g>
</g>
<g>
</g>
<g>
</g>
<g>
</g>
</svg>
