<?xml version="1.0" encoding="UTF-8"?>
<svg width="16px" height="16px" viewBox="0 0 16 16" version="1.1" xmlns="http://www.w3.org/2000/svg" xmlns:xlink="http://www.w3.org/1999/xlink">
    <!-- Generator: Sketch 56.3 (81716) - https://sketch.com -->
    <title>weather/cloudy_sun</title>
    <desc>Created with Sketch.</desc>
    <defs>
        <path d="M3.2,12.9626901 C1.39077646,12.707306 0,11.1718273 0,9.31578947 C0,7.28105618 1.67147027,5.63157895 3.73333333,5.63157895 C3.75661267,5.63157895 3.77984224,5.63178921 3.8030202,5.63220792 C4.65842209,4.06509821 6.33650242,3 8.26666667,3 C10.7951498,3 12.8910426,4.82776867 13.2716456,7.21748402 C14.7960464,7.3213244 16,8.57454456 16,10.1052632 C16,11.6152744 14.8284,12.8552443 13.3333333,12.9881992 L13.3333333,13 L3.2,13 L3.2,12.9626901 L3.2,12.9626901 Z" id="path-1"></path>
    </defs>
    <g id="weather/cloudy_sun" stroke="none" stroke-width="1" fill="none" fill-rule="evenodd">
        <circle id="Oval" stroke="#FEDD2A" fill-opacity="0.4" fill="#FEDD2A" cx="10.5" cy="7.5" r="5"></circle>
        <g id="Path">
            <use fill="#FFFFFF" xlink:href="#path-1"></use>
            <path stroke-opacity="0.4" stroke="#2B55E6" stroke-width="1" d="M3.49943077,12.5 L13.1784459,12.5 L13.2890436,12.4901647 C14.5373873,12.3791506 15.5,11.3451522 15.5,10.1052632 C15.5,8.84661292 14.5089089,7.80292363 13.237665,7.716328 L12.8404842,7.68927251 L12.777869,7.29612639 C12.4319595,5.12424356 10.5240913,3.5 8.26666667,3.5 C6.56624018,3.5 5.03254773,4.42327951 4.24189558,5.87176667 L4.09679319,6.13759653 L3.79398914,6.13212636 C3.76371139,6.13167048 3.76371139,6.13167048 3.73333333,6.13157895 C1.94614107,6.13157895 0.5,7.55869185 0.5,9.31578947 C0.5,10.9033406 1.68786734,12.2442857 3.26988554,12.4675982 L3.49943077,12.5 Z" stroke-linejoin="square" fill-opacity="0.1" fill="#2B55E6"></path>
        </g>
    </g>
</svg>