<?xml version="1.0" encoding="UTF-8"?>
<svg width="16px" height="16px" viewBox="0 0 16 16" version="1.1" xmlns="http://www.w3.org/2000/svg" xmlns:xlink="http://www.w3.org/1999/xlink">
    <!-- Generator: Sketch 56.3 (81716) - https://sketch.com -->
    <title>weather/heavy_rain</title>
    <desc>Created with Sketch.</desc>
    <defs>
        <path d="M3.2,10 C1.39789389,9.98819921 0,8.17182732 0,6.31578947 C0,4.28105618 1.67147027,2.63157895 3.73333333,2.63157895 C3.75661267,2.63157895 3.77984224,2.63178921 3.8030202,2.63220792 C4.65842209,1.06509821 6.33650242,0 8.26666667,0 C10.7951498,0 12.8910426,1.82776867 13.2716456,4.21748402 C14.7960464,4.3213244 16,5.57454456 16,7.10526316 C16,8.61527436 14.8284,9.85524426 13.3333333,9.98819921 L3.2,10 Z" id="path-1"></path>
    </defs>
    <g id="weather/heavy_rain" stroke="none" stroke-width="1" fill="none" fill-rule="evenodd">
        <path d="M7.07440361,15.99992 L7.75166448,14.6783006 L6.86171235,14.2222466 L6.18445148,15.543866 L7.07440361,15.99992 Z" id="Line" stroke-opacity="0.4" stroke="#2B55E6"></path>
        <path d="M12.1382877,12.5496464 L12.8155485,11.228027 L11.9255964,10.771973 L11.2483355,12.0935924 L12.1382877,12.5496464 Z" id="Line" stroke-opacity="0.4" stroke="#2B55E6" transform="translate(12.031942, 11.660810) rotate(-180.000000) translate(-12.031942, -11.660810) "></path>
        <path d="M5.13828765,12.5496464 L5.81554852,11.228027 L4.92559639,10.771973 L4.24833552,12.0935924 L5.13828765,12.5496464 Z" id="Line" stroke-opacity="0.4" stroke="#2B55E6" transform="translate(5.031942, 11.660810) rotate(-180.000000) translate(-5.031942, -11.660810) "></path>
        <path d="M8.22086534,13.6740452 L9.44713116,11.2237716 L8.55286884,10.7762284 L7.32660303,13.226502 L8.22086534,13.6740452 Z" id="Line" stroke-opacity="0.4" stroke="#2B55E6"></path>
        <path d="M10.4471312,15.9956646 L11.673397,13.545391 L10.7791347,13.0978478 L9.55286884,15.5481214 L10.4471312,15.9956646 Z" id="Line" stroke-opacity="0.4" stroke="#2B55E6" transform="translate(10.613133, 14.546756) rotate(-180.000000) translate(-10.613133, -14.546756) "></path>
        <path d="M3.44713116,15.9956646 L4.67339697,13.545391 L3.77913466,13.0978478 L2.55286884,15.5481214 L3.44713116,15.9956646 Z" id="Line" stroke-opacity="0.4" stroke="#2B55E6" transform="translate(3.613133, 14.546756) rotate(-180.000000) translate(-3.613133, -14.546756) "></path>
        <g id="cloud">
            <use fill="#FFFFFF" xlink:href="#path-1"></use>
            <path stroke-opacity="0.4" stroke="#2B55E6" stroke-width="1" d="M3.20149494,9.49999831 L13.2890436,9.49016465 C14.5373873,9.37915056 15.5,8.34515218 15.5,7.10526316 C15.5,5.84661292 14.5089089,4.80292363 13.237665,4.716328 L12.8404842,4.68927251 L12.777869,4.29612639 C12.4319595,2.12424356 10.5240913,0.5 8.26666667,0.5 C6.56624018,0.5 5.03254773,1.42327951 4.24189558,2.87176667 L4.09679319,3.13759653 L3.79398914,3.13212636 C3.76371139,3.13167048 3.76371139,3.13167048 3.73333333,3.13157895 C1.94614107,3.13157895 0.5,4.55869185 0.5,6.31578947 C0.5,7.98551433 1.75643759,9.48930888 3.20149494,9.49999831 Z" stroke-linejoin="square" fill-opacity="0.1" fill="#2B55E6"></path>
        </g>
    </g>
</svg>