<svg width="30" height="30" xmlns="http://www.w3.org/2000/svg">

 <g>
  <title>background</title>
  <rect fill="none" id="canvas_background" height="402" width="582" y="-1" x="-1"/>
 </g>
 <g>
  <title>Layer 1</title>
  <path id="svg_1" d="m16.192,17.544l-3.216,0l0,-3.552c1.056,-0.216 1.992,-0.576 2.832,-1.128c0.84,-0.552 1.248,-1.152 1.248,-1.848c0,-1.272 -1.152,-1.92 -2.76,-1.92c-1.368,0 -2.808,0.456 -4.296,1.344l0,-3.024c1.368,-0.936 2.976,-1.416 4.848,-1.416c1.56,0 2.904,0.432 4.008,1.296c1.128,0.84 1.68,2.016 1.68,3.504c0,1.176 -0.432,2.184 -1.296,3.024a7.41,7.41 0 0 1 -3.048,1.8l0,1.92zm-1.536,5.856c-1.176,0 -2.088,-0.936 -2.088,-2.112c0,-1.152 0.912,-2.064 2.088,-2.064a2.07,2.07 0 0 1 2.088,2.064a2.095,2.095 0 0 1 -2.088,2.112z" fill-rule="nonzero" fill="#746a8f"/>
 </g>
</svg>