<svg xmlns="http://www.w3.org/2000/svg" width="30" height="30" viewBox="0 0 30 30">
    <path fill="#2B55E6" fill-rule="nonzero" d="M16.192 17.544h-3.216v-3.552c1.056-.216 1.992-.576 2.832-1.128.84-.552 1.248-1.152 1.248-1.848 0-1.272-1.152-1.92-2.76-1.92-1.368 0-2.808.456-4.296 1.344V7.416C11.368 6.48 12.976 6 14.848 6c1.56 0 2.904.432 4.008 1.296 1.128.84 1.68 2.016 1.68 3.504 0 1.176-.432 2.184-1.296 3.024a7.41 7.41 0 0 1-3.048 1.8v1.92zM14.656 23.4c-1.176 0-2.088-.936-2.088-2.112 0-1.152.912-2.064 2.088-2.064a2.07 2.07 0 0 1 2.088 2.064 2.095 2.095 0 0 1-2.088 2.112z"/>
</svg>
