<?xml version="1.0" encoding="UTF-8"?>
<svg width="16px" height="16px" viewBox="0 0 16 16" version="1.1" xmlns="http://www.w3.org/2000/svg" xmlns:xlink="http://www.w3.org/1999/xlink">
    <!-- Generator: Sketch 56.2 (81672) - https://sketch.com -->
    <title>legend_relapse</title>
    <desc>Created with Sketch.</desc>
    <defs>
        <rect id="path-1" x="0" y="0" width="20" height="20" rx="6"></rect>
    </defs>
    <g id="Symbols" stroke="none" stroke-width="1" fill="none" fill-rule="evenodd" opacity="0.5">
        <g id="legends/legend_2" transform="translate(-713.000000, -89.000000)">
            <g id="legend_relapse" transform="translate(711.000000, 87.000000)">
                <mask id="mask-2" fill="white">
                    <use xlink:href="#path-1"></use>
                </mask>
                <g id="Mask"></g>
                <path d="M5.64902559,14.9533726 L7.77140885,17.0757558 L7.07658019,17.7705845 L4.95419693,15.6482012 L2.82736421,17.775034 L2.12570706,17.0733768 L4.25253979,14.9465441 L2.12683272,12.820837 L2.82166138,12.1260084 L4.94736844,14.2517154 L7.07337682,12.1257071 L7.77503397,12.8273642 L5.64902559,14.9533726 Z M5.64902559,4.95337259 L7.77140885,7.07575585 L7.07658019,7.77058451 L4.95419693,5.64820124 L2.82736421,7.77503397 L2.12570706,7.07337682 L4.25253979,4.9465441 L2.12683272,2.82083704 L2.82166138,2.12600838 L4.94736844,4.25171544 L7.07337682,2.12570706 L7.77503397,2.82736421 L5.64902559,4.95337259 Z M15.6490256,14.9533726 L17.7714088,17.0757558 L17.0765802,17.7705845 L14.9541969,15.6482012 L12.8273642,17.775034 L12.1257071,17.0733768 L14.2525398,14.9465441 L12.1268327,12.820837 L12.8216614,12.1260084 L14.9473684,14.2517154 L17.0733768,12.1257071 L17.775034,12.8273642 L15.6490256,14.9533726 Z M15.6490256,4.95337259 L17.7714088,7.07575585 L17.0765802,7.77058451 L14.9541969,5.64820124 L12.8273642,7.77503397 L12.1257071,7.07337682 L14.2525398,4.9465441 L12.1268327,2.82083704 L12.8216614,2.12600838 L14.9473684,4.25171544 L17.0733768,2.12570706 L17.775034,2.82736421 L15.6490256,4.95337259 Z" id="Shape" fill="#2A2A2C" mask="url(#mask-2)"></path>
            </g>
        </g>
    </g>
</svg>