<?xml version="1.0" encoding="UTF-8"?>
<svg width="16px" height="16px" viewBox="0 0 16 16" version="1.1" xmlns="http://www.w3.org/2000/svg" xmlns:xlink="http://www.w3.org/1999/xlink">
    <!-- Generator: Sketch 56.3 (81716) - https://sketch.com -->
    <title>weather/light_rain</title>
    <desc>Created with Sketch.</desc>
    <defs>
        <path d="M3.2,11 C1.39789389,10.9881992 0,9.17182732 0,7.31578947 C0,5.28105618 1.67147027,3.63157895 3.73333333,3.63157895 C3.75661267,3.63157895 3.77984224,3.63178921 3.8030202,3.63220792 C4.65842209,2.06509821 6.33650242,1 8.26666667,1 C10.7951498,1 12.8910426,2.82776867 13.2716456,5.21748402 C14.7960464,5.3213244 16,6.57454456 16,8.10526316 C16,9.61527436 14.8284,10.8552443 13.3333333,10.9881992 L3.2,11 Z" id="path-1"></path>
    </defs>
    <g id="weather/light_rain" stroke="none" stroke-width="1" fill="none" fill-rule="evenodd">
        <path d="M5.67862718,13.1841727 L6.18417273,12.3213728 L5.32137282,11.8158273 L4.81582727,12.6786272 L5.67862718,13.1841727 Z" id="Line" stroke-opacity="0.4" stroke="#2B55E6"></path>
        <path d="M8.67862718,13.1841727 L9.18417273,12.3213728 L8.32137282,11.8158273 L7.81582727,12.6786272 L8.67862718,13.1841727 Z" id="Line" stroke-opacity="0.4" stroke="#2B55E6"></path>
        <path d="M4.43139996,15.1155727 L4.93694551,14.2527728 L4.07414559,13.7472272 L3.56860004,14.6100271 L4.43139996,15.1155727 Z" id="Line" stroke-opacity="0.4" stroke="#2B55E6"></path>
        <path d="M7.55501357,15.1155727 L8.06055912,14.2527728 L7.1977592,13.7472272 L6.69221365,14.6100271 L7.55501357,15.1155727 Z" id="Line" stroke-opacity="0.4" stroke="#2B55E6"></path>
        <path d="M10.6786272,15.1155727 L11.1841727,14.2527728 L10.3213728,13.7472272 L9.81582727,14.6100271 L10.6786272,15.1155727 Z" id="Line" stroke-opacity="0.4" stroke="#2B55E6"></path>
        <path d="M11.6786272,13.1841727 L12.1841727,12.3213728 L11.3213728,11.8158273 L10.8158273,12.6786272 L11.6786272,13.1841727 Z" id="Line" stroke-opacity="0.4" stroke="#2B55E6"></path>
        <g id="cloud">
            <use fill="#FFFFFF" xlink:href="#path-1"></use>
            <path stroke-opacity="0.4" stroke="#2B55E6" stroke-width="1" d="M3.20149494,10.4999983 L13.2890436,10.4901647 C14.5373873,10.3791506 15.5,9.34515218 15.5,8.10526316 C15.5,6.84661292 14.5089089,5.80292363 13.237665,5.716328 L12.8404842,5.68927251 L12.777869,5.29612639 C12.4319595,3.12424356 10.5240913,1.5 8.26666667,1.5 C6.56624018,1.5 5.03254773,2.42327951 4.24189558,3.87176667 L4.09679319,4.13759653 L3.79398914,4.13212636 C3.76371139,4.13167048 3.76371139,4.13167048 3.73333333,4.13157895 C1.94614107,4.13157895 0.5,5.55869185 0.5,7.31578947 C0.5,8.98551433 1.75643759,10.4893089 3.20149494,10.4999983 Z" stroke-linejoin="square" fill-opacity="0.1" fill="#2B55E6"></path>
        </g>
    </g>
</svg>