<?xml version="1.0" encoding="UTF-8"?>
<svg width="16px" height="16px" viewBox="0 0 16 16" version="1.1" xmlns="http://www.w3.org/2000/svg" xmlns:xlink="http://www.w3.org/1999/xlink">
    <!-- Generator: Sketch 56.3 (81716) - https://sketch.com -->
    <title>weather/light_snow</title>
    <desc>Created with Sketch.</desc>
    <defs>
        <path d="M3.2,11 C1.39789389,10.9881992 0,9.17182732 0,7.31578947 C0,5.28105618 1.67147027,3.63157895 3.73333333,3.63157895 C3.75661267,3.63157895 3.77984224,3.63178921 3.8030202,3.63220792 C4.65842209,2.06509821 6.33650242,1 8.26666667,1 C10.7951498,1 12.8910426,2.82776867 13.2716456,5.21748402 C14.7960464,5.3213244 16,6.57454456 16,8.10526316 C16,9.61527436 14.8284,10.8552443 13.3333333,10.9881992 L3.2,11 Z" id="path-1"></path>
    </defs>
    <g id="weather/light_snow" stroke="none" stroke-width="1" fill="none" fill-rule="evenodd">
        <g id="cloud">
            <use fill="#FFFFFF" xlink:href="#path-1"></use>
            <path stroke-opacity="0.4" stroke="#2B55E6" stroke-width="1" d="M3.20149494,10.4999983 L13.2890436,10.4901647 C14.5373873,10.3791506 15.5,9.34515218 15.5,8.10526316 C15.5,6.84661292 14.5089089,5.80292363 13.237665,5.716328 L12.8404842,5.68927251 L12.777869,5.29612639 C12.4319595,3.12424356 10.5240913,1.5 8.26666667,1.5 C6.56624018,1.5 5.03254773,2.42327951 4.24189558,3.87176667 L4.09679319,4.13759653 L3.79398914,4.13212636 C3.76371139,4.13167048 3.76371139,4.13167048 3.73333333,4.13157895 C1.94614107,4.13157895 0.5,5.55869185 0.5,7.31578947 C0.5,8.98551433 1.75643759,10.4893089 3.20149494,10.4999983 Z" stroke-linejoin="square" fill-opacity="0.1" fill="#2B55E6"></path>
        </g>
        <path d="M7.60649712,12.8109308 L7.60649712,12 L8.40649712,12 L8.40649712,12.8034286 L9.09903811,12.4035898 L9.49903811,13.0964102 L8.8,13.5 L9.49903811,13.9035898 L9.09903811,14.5964102 L8.40649712,14.1965714 L8.40649712,15 L7.60649712,15 L7.60649712,14.1890692 L6.90096189,14.5964102 L6.50096189,13.9035898 L7.2,13.5 L6.50096189,13.0964102 L6.90096189,12.4035898 L7.60649712,12.8109308 Z" id="Combined-Shape" fill="#9CB0F3" transform="translate(8.000000, 13.500000) rotate(-90.000000) translate(-8.000000, -13.500000) "></path>
    </g>
</svg>