<?xml version="1.0" encoding="UTF-8"?>
<svg width="16px" height="16px" viewBox="0 0 16 16" version="1.1" xmlns="http://www.w3.org/2000/svg" xmlns:xlink="http://www.w3.org/1999/xlink">
    <!-- Generator: Sketch 56.3 (81716) - https://sketch.com -->
    <title>weather/lightning</title>
    <desc>Created with Sketch.</desc>
    <defs>
        <path d="M3.2,10 C1.39789389,9.98819921 0,8.17182732 0,6.31578947 C0,4.28105618 1.67147027,2.63157895 3.73333333,2.63157895 C3.75661267,2.63157895 3.77984224,2.63178921 3.8030202,2.63220792 C4.65842209,1.06509821 6.33650242,0 8.26666667,0 C10.7951498,0 12.8910426,1.82776867 13.2716456,4.21748402 C14.7960464,4.3213244 16,5.57454456 16,7.10526316 C16,8.61527436 14.8284,9.85524426 13.3333333,9.98819921 L3.2,10 Z" id="path-1"></path>
    </defs>
    <g id="weather/lightning" stroke="none" stroke-width="1" fill="none" fill-rule="evenodd">
        <path d="M4.07440361,15.99992 L4.75166448,14.6783006 L3.86171235,14.2222466 L3.18445148,15.543866 L4.07440361,15.99992 Z" id="Line" stroke-opacity="0.4" stroke="#2B55E6"></path>
        <path d="M2.79965722,12.5496464 L3.47691808,11.228027 L2.58696596,10.771973 L1.90970509,12.0935924 L2.79965722,12.5496464 Z" id="Line" stroke-opacity="0.4" stroke="#2B55E6" transform="translate(2.693312, 11.660810) rotate(-180.000000) translate(-2.693312, -11.660810) "></path>
        <path d="M5.22086534,13.6740452 L6.44713116,11.2237716 L5.55286884,10.7762284 L4.32660303,13.226502 L5.22086534,13.6740452 Z" id="Line" stroke-opacity="0.4" stroke="#2B55E6"></path>
        <path d="M1.10850072,15.9956646 L2.33476654,13.545391 L1.44050423,13.0978478 L0.214238411,15.5481214 L1.10850072,15.9956646 Z" id="Line" stroke-opacity="0.4" stroke="#2B55E6" transform="translate(1.274502, 14.546756) rotate(-180.000000) translate(-1.274502, -14.546756) "></path>
        <g id="cloud">
            <use fill="#FFFFFF" xlink:href="#path-1"></use>
            <path stroke-opacity="0.4" stroke="#2B55E6" stroke-width="1" d="M3.20149494,9.49999831 L13.2890436,9.49016465 C14.5373873,9.37915056 15.5,8.34515218 15.5,7.10526316 C15.5,5.84661292 14.5089089,4.80292363 13.237665,4.716328 L12.8404842,4.68927251 L12.777869,4.29612639 C12.4319595,2.12424356 10.5240913,0.5 8.26666667,0.5 C6.56624018,0.5 5.03254773,1.42327951 4.24189558,2.87176667 L4.09679319,3.13759653 L3.79398914,3.13212636 C3.76371139,3.13167048 3.76371139,3.13167048 3.73333333,3.13157895 C1.94614107,3.13157895 0.5,4.55869185 0.5,6.31578947 C0.5,7.98551433 1.75643759,9.48930888 3.20149494,9.49999831 Z" stroke-linejoin="square" fill-opacity="0.1" fill="#2B55E6"></path>
        </g>
        <polygon id="Path" stroke="#FEDD2A" fill="#FEF1AA" stroke-linejoin="round" points="11.7165623 10.2323232 14.715104 10.2323232 7.19220407 15.4804207 9.50878004 11.2402103 7.95020453 11.2402103 10.4689231 7 15.515104 7"></polygon>
    </g>
</svg>