<?xml version="1.0" encoding="UTF-8"?>
<svg width="16px" height="16px" viewBox="0 0 16 16" version="1.1" xmlns="http://www.w3.org/2000/svg" xmlns:xlink="http://www.w3.org/1999/xlink">
    <!-- Generator: Sketch 56.3 (81716) - https://sketch.com -->
    <title>weather/overcast</title>
    <desc>Created with Sketch.</desc>
    <defs>
        <path d="M4.6,9 C3.13578879,8.99055937 2,7.53746186 2,6.05263158 C2,4.42484495 3.35806959,3.10526316 5.03333333,3.10526316 C5.05224779,3.10526316 5.07112182,3.10543137 5.08995391,3.10576634 C5.78496795,1.85207857 7.14840822,1 8.71666667,1 C10.7710592,1 12.4739721,2.46221493 12.7832121,4.37398721 C14.0217877,4.45705952 15,5.45963565 15,6.68421053 C15,7.89221949 14.048075,8.88419541 12.8333333,8.99055937 L4.6,9 Z" id="path-1"></path>
        <path d="M3.2,14 C1.39789389,13.9881992 0,12.1718273 0,10.3157895 C0,8.28105618 1.67147027,6.63157895 3.73333333,6.63157895 C3.75661267,6.63157895 3.77984224,6.63178921 3.8030202,6.63220792 C4.65842209,5.06509821 6.33650242,4 8.26666667,4 C10.7951498,4 12.8910426,5.82776867 13.2716456,8.21748402 C14.7960464,8.3213244 16,9.57454456 16,11.1052632 C16,12.6152744 14.8284,13.8552443 13.3333333,13.9881992 L3.2,14 Z" id="path-2"></path>
    </defs>
    <g id="weather/overcast" stroke="none" stroke-width="1" fill="none" fill-rule="evenodd">
        <g id="cloud" opacity="0.6">
            <use fill="#FFFFFF" xlink:href="#path-1"></use>
            <path stroke-opacity="0.4" stroke="#2B55E6" stroke-width="1" d="M4.60150581,8.49999842 L12.7897197,8.49246514 C13.7571692,8.40775433 14.5,7.62211213 14.5,6.68421053 C14.5,5.73206436 13.7350916,4.93895394 12.7497518,4.87286637 L12.3531064,4.84626303 L12.2896277,4.45382728 C12.0165677,2.7657253 10.5065916,1.5 8.71666667,1.5 C7.3677313,1.5 6.15253221,2.22029263 5.5272514,3.34819345 L5.38154014,3.61103191 L5.08106175,3.60568726 C5.05723822,3.60533408 5.05723822,3.60533408 5.03333333,3.60526316 C3.63104619,3.60526316 2.5,4.7042554 2.5,6.05263158 C2.5,7.33540316 3.48100019,8.49159957 4.60150581,8.49999842 Z" stroke-linejoin="square" fill-opacity="0.1" fill="#2B55E6"></path>
        </g>
        <g id="cloud">
            <use fill="#FFFFFF" xlink:href="#path-2"></use>
            <path stroke-opacity="0.4" stroke="#2B55E6" stroke-width="1" d="M3.20149494,13.4999983 L13.2890436,13.4901647 C14.5373873,13.3791506 15.5,12.3451522 15.5,11.1052632 C15.5,9.84661292 14.5089089,8.80292363 13.237665,8.716328 L12.8404842,8.68927251 L12.777869,8.29612639 C12.4319595,6.12424356 10.5240913,4.5 8.26666667,4.5 C6.56624018,4.5 5.03254773,5.42327951 4.24189558,6.87176667 L4.09679319,7.13759653 L3.79398914,7.13212636 C3.76371139,7.13167048 3.76371139,7.13167048 3.73333333,7.13157895 C1.94614107,7.13157895 0.5,8.55869185 0.5,10.3157895 C0.5,11.9855143 1.75643759,13.4893089 3.20149494,13.4999983 Z" stroke-linejoin="square" fill-opacity="0.1" fill="#2B55E6"></path>
        </g>
    </g>
</svg>