<svg xmlns="http://www.w3.org/2000/svg"  width="24" height="24" viewBox="0 0 24 24"><path fill="#121313" fill-rule="evenodd" transform="translate(1,1)" d="M12.379 16.24l-.323-3.232a.09.09 0 0 0-.178-.01l-.598 2.692-.831-.416a.45.45 0 0 1-.249-.402v-3.586a.45.45 0 0 0-.132-.318l-.636-.636a.45.45 0 0 1-.132-.318V7.849a.9.9 0 0 1 1.185-.854l3.292 1.097c.551.184.923.7.923 1.281v2.349a.45.45 0 0 1-.249.402l-.402.202a.45.45 0 0 0-.249.402v3.785a.27.27 0 0 1-.39.242l-1.031-.516zM8.4 13.657c-2.208.41-3.6 1.174-3.6 1.942 0 .77 1.468 1.588 3.877 1.992l.118-1.372a.195.195 0 0 1 .023-.076c.05-.09.161-.12.248-.068l4.194 2.716c.033.02.06.052.075.09a.193.193 0 0 1-.095.248l-4.588 1.855a.174.174 0 0 1-.089.014.187.187 0 0 1-.162-.207l.12-1.399C5.195 18.871 3 17.58 3 15.6c0-1.951 2.165-3.249 5.4-3.78v1.838zm7.2 0v-1.837c3.237.532 5.4 1.833 5.4 3.792 0 1.934-2.062 3.186-5.256 3.738a.9.9 0 0 1-.307-1.773c2.414-.418 3.763-1.237 3.763-1.965 0-.777-1.39-1.544-3.6-1.955zM12 6.6A1.8 1.8 0 1 1 12 3a1.8 1.8 0 0 1 0 3.6z"/></svg>