<?xml version="1.0" encoding="UTF-8"?>
<svg width="16px" height="16px" viewBox="0 0 16 16" version="1.1" xmlns="http://www.w3.org/2000/svg" xmlns:xlink="http://www.w3.org/1999/xlink">
    <!-- Generator: Sketch 56.3 (81716) - https://sketch.com -->
    <title>weather/rain</title>
    <desc>Created with Sketch.</desc>
    <defs>
        <path d="M3.2,10 C1.39789389,9.98819921 0,8.17182732 0,6.31578947 C0,4.28105618 1.67147027,2.63157895 3.73333333,2.63157895 C3.75661267,2.63157895 3.77984224,2.63178921 3.8030202,2.63220792 C4.65842209,1.06509821 6.33650242,0 8.26666667,0 C10.7951498,0 12.8910426,1.82776867 13.2716456,4.21748402 C14.7960464,4.3213244 16,5.57454456 16,7.10526316 C16,8.61527436 14.8284,9.85524426 13.3333333,9.98819921 L3.2,10 Z" id="path-1"></path>
    </defs>
    <g id="weather/rain" stroke="none" stroke-width="1" fill="none" fill-rule="evenodd">
        <path d="M5.67862718,12.1841727 L6.18417273,11.3213728 L5.32137282,10.8158273 L4.81582727,11.6786272 L5.67862718,12.1841727 Z" id="Line" stroke-opacity="0.4" stroke="#2B55E6"></path>
        <path d="M8.67862718,12.1841727 L9.18417273,11.3213728 L8.32137282,10.8158273 L7.81582727,11.6786272 L8.67862718,12.1841727 Z" id="Line" stroke-opacity="0.4" stroke="#2B55E6"></path>
        <path d="M4.43139996,14.1155727 L4.93694551,13.2527728 L4.07414559,12.7472272 L3.56860004,13.6100271 L4.43139996,14.1155727 Z" id="Line" stroke-opacity="0.4" stroke="#2B55E6"></path>
        <path d="M7.55501357,14.1155727 L8.06055912,13.2527728 L7.1977592,12.7472272 L6.69221365,13.6100271 L7.55501357,14.1155727 Z" id="Line" stroke-opacity="0.4" stroke="#2B55E6"></path>
        <path d="M10.6786272,14.1155727 L11.1841727,13.2527728 L10.3213728,12.7472272 L9.81582727,13.6100271 L10.6786272,14.1155727 Z" id="Line" stroke-opacity="0.4" stroke="#2B55E6"></path>
        <path d="M3.43139996,16.1155727 L3.93694551,15.2527728 L3.07414559,14.7472272 L2.56860004,15.6100271 L3.43139996,16.1155727 Z" id="Line" stroke-opacity="0.4" stroke="#2B55E6"></path>
        <path d="M6.55501357,16.1155727 L7.06055912,15.2527728 L6.1977592,14.7472272 L5.69221365,15.6100271 L6.55501357,16.1155727 Z" id="Line" stroke-opacity="0.4" stroke="#2B55E6"></path>
        <path d="M9.67862718,16.1155727 L10.1841727,15.2527728 L9.32137282,14.7472272 L8.81582727,15.6100271 L9.67862718,16.1155727 Z" id="Line" stroke-opacity="0.4" stroke="#2B55E6"></path>
        <path d="M11.6786272,12.1841727 L12.1841727,11.3213728 L11.3213728,10.8158273 L10.8158273,11.6786272 L11.6786272,12.1841727 Z" id="Line" stroke-opacity="0.4" stroke="#2B55E6"></path>
        <g id="cloud">
            <use fill="#FFFFFF" xlink:href="#path-1"></use>
            <path stroke-opacity="0.4" stroke="#2B55E6" stroke-width="1" d="M3.20149494,9.49999831 L13.2890436,9.49016465 C14.5373873,9.37915056 15.5,8.34515218 15.5,7.10526316 C15.5,5.84661292 14.5089089,4.80292363 13.237665,4.716328 L12.8404842,4.68927251 L12.777869,4.29612639 C12.4319595,2.12424356 10.5240913,0.5 8.26666667,0.5 C6.56624018,0.5 5.03254773,1.42327951 4.24189558,2.87176667 L4.09679319,3.13759653 L3.79398914,3.13212636 C3.76371139,3.13167048 3.76371139,3.13167048 3.73333333,3.13157895 C1.94614107,3.13157895 0.5,4.55869185 0.5,6.31578947 C0.5,7.98551433 1.75643759,9.48930888 3.20149494,9.49999831 Z" stroke-linejoin="square" fill-opacity="0.1" fill="#2B55E6"></path>
        </g>
    </g>
</svg>