<?xml version="1.0" encoding="iso-8859-1"?>
<!-- Generator: Adobe Illustrator 17.1.0, SVG Export Plug-In . SVG Version: 6.00 Build 0)  -->
<!DOCTYPE svg PUBLIC "-//W3C//DTD SVG 1.1//EN" "http://www.w3.org/Graphics/SVG/1.1/DTD/svg11.dtd">
<svg version="1.1" id="Capa_1" xmlns="http://www.w3.org/2000/svg" xmlns:xlink="http://www.w3.org/1999/xlink" x="0px" y="0px"
   viewBox="0 0 344.215 344.215" style="enable-background:new 0 0 344.215 344.215;" xml:space="preserve">
<path style="fill:#222220;" d="M344.215,122.699c0-57.084-46.441-103.525-103.525-103.525c-26.283,0-50.306,9.851-68.582,26.047
  c-18.276-16.196-42.299-26.047-68.582-26.047C46.441,19.174,0,65.615,0,122.699c0,45.584,29.616,84.38,70.617,98.161
  c-0.001,0.219-0.008,0.437-0.008,0.655c0,57.084,46.441,103.525,103.525,103.525S277.659,278.6,277.659,221.516
  c0-0.706-0.013-1.408-0.027-2.11C316.526,204.497,344.215,166.774,344.215,122.699z M172.107,178.609
  c-9.898-12.119-16.652-26.899-19.011-43.087c6.746-1.65,13.79-2.532,21.038-2.532c5.851,0,11.57,0.576,17.106,1.665
  C188.999,151.182,182.182,166.274,172.107,178.609z M205.789,138.846c29.383,11.289,51.269,37.811,55.938,69.846
  c-6.746,1.65-13.79,2.532-21.038,2.532c-22.21,0-42.535-8.224-58.093-21.784C194.548,175.304,202.787,157.935,205.789,138.846z
   M161.619,189.441c-15.558,13.56-35.883,21.784-58.093,21.784c-5.851,0-11.57-0.576-17.107-1.665
  c4.207-31.024,24.545-56.991,52.266-69.153C141.883,158.881,149.994,175.69,161.619,189.441z M174.134,117.99
  c-7.526,0-14.864,0.814-21.938,2.347c0.533-20.27,7.917-38.862,19.911-53.548c11.836,14.492,19.176,32.789,19.881,52.747
  C186.186,118.523,180.221,117.99,174.134,117.99z M15,122.699c0-48.813,39.712-88.525,88.525-88.525
  c22.21,0,42.535,8.224,58.093,21.784c-15.247,18.035-24.455,41.332-24.455,66.742c0,0.706,0.013,1.408,0.027,2.11
  c-34.047,13.051-59.505,43.584-65.321,80.559C38.646,192.604,15,160.364,15,122.699z M174.134,310.041
  c-47.754,0-86.791-38.009-88.463-85.362c5.802,1.013,11.767,1.545,17.854,1.545c26.283,0,50.306-9.851,68.582-26.047
  c18.276,16.196,42.299,26.047,68.582,26.047c7.526,0,14.864-0.814,21.938-2.347C261.371,271.604,222.157,310.041,174.134,310.041z
   M276.138,203.809c-6.527-37.712-33.524-68.498-69.096-80.454c0.001-0.219,0.008-0.437,0.008-0.655
  c0-25.41-9.208-48.707-24.455-66.742c15.558-13.56,35.883-21.784,58.093-21.784c48.813,0,88.525,39.712,88.525,88.525
  C329.215,158.914,307.354,190.113,276.138,203.809z"/>
<g>
</g>
<g>
</g>
<g>
</g>
<g>
</g>
<g>
</g>
<g>
</g>
<g>
</g>
<g>
</g>
<g>
</g>
<g>
</g>
<g>
</g>
<g>
</g>
<g>
</g>
<g>
</g>
<g>
</g>
</svg>
