<?xml version="1.0" encoding="iso-8859-1"?>
<!-- Generator: Adobe Illustrator 16.0.0, SVG Export Plug-In . SVG Version: 6.00 Build 0)  -->
<!DOCTYPE svg PUBLIC "-//W3C//DTD SVG 1.1//EN" "http://www.w3.org/Graphics/SVG/1.1/DTD/svg11.dtd">
<svg version="1.1" id="Capa_1" xmlns="http://www.w3.org/2000/svg" xmlns:xlink="http://www.w3.org/1999/xlink" x="0px" y="0px"
   width="67.199px" height="67.2px" viewBox="0 0 67.199 67.2" style="enable-background:new 0 0 67.199 67.2;" xml:space="preserve"
  >
<g>
  <g>
    <g>
      <path d="M33.6,16.8c3.583,0,6.722,1.12,9.408,2.911L53.76,6.721C48.16,2.464,41.216,0,33.6,0C19.04,0,6.72,9.409,2.016,22.176
        l16.128,4.928C20.607,21.056,26.657,16.8,33.6,16.8z"/>
      <path d="M33.6,50.399c-9.184,0-16.8-7.614-16.8-16.799c0-1.121,0.224-2.24,0.224-3.137l-16.128-4.93C0.449,28,0,30.912,0,33.598
        C0,52.19,15.008,67.199,33.6,67.199c0.896,0,1.121,0,2.017,0l-1.569-16.8C33.825,50.399,33.825,50.399,33.6,50.399z"/>
      <path d="M56.448,8.959L45.695,21.953c2.912,3.137,4.703,7.168,4.703,11.647c0,8.062-5.6,14.783-12.989,16.353l2.016,16.801
        C55.104,63.84,67.199,50.176,67.199,33.6C67.199,23.746,62.943,15.008,56.448,8.959z"/>
      <rect x="24.416" y="28.896" width="4.032" height="13.439"/>
      <rect x="31.584" y="33.826" width="4.031" height="8.733"/>
      <rect x="38.752" y="24.865" width="4.031" height="17.694"/>
    </g>
  </g>
</g>
<g>
</g>
<g>
</g>
<g>
</g>
<g>
</g>
<g>
</g>
<g>
</g>
<g>
</g>
<g>
</g>
<g>
</g>
<g>
</g>
<g>
</g>
<g>
</g>
<g>
</g>
<g>
</g>
<g>
</g>
</svg>
