<?xml version="1.0" encoding="utf-8"?>
<!-- Generator: Adobe Illustrator 17.0.0, SVG Export Plug-In . SVG Version: 6.00 Build 0)  -->
<!DOCTYPE svg PUBLIC "-//W3C//DTD SVG 1.1//EN" "http://www.w3.org/Graphics/SVG/1.1/DTD/svg11.dtd">
<svg version="1.1" id="Layer_1" xmlns="http://www.w3.org/2000/svg" xmlns:xlink="http://www.w3.org/1999/xlink" x="0px" y="0px"
   width="40px" height="40px" viewBox="0 0 40 40" enable-background="new 0 0 40 40" xml:space="preserve">
<path fill="#231F20" d="M41,18.518h-2.409C37.871,9.409,30.59,2.131,21.48,1.411v-2.409h-2.963v2.409
  C9.407,2.131,2.129,9.409,1.409,18.518H-1v2.963h2.409c0.72,9.109,7.998,16.391,17.108,17.111v2.406h2.963v-2.406
  c9.109-0.72,16.391-8.001,17.111-17.111H41V18.518z M21.48,35.555v-6.481h-2.963v6.481c-7.462-0.711-13.359-6.611-14.07-14.073
  h6.478v-2.963H4.447c0.711-7.459,6.611-13.359,14.07-14.07v6.478h2.963V4.448c7.462,0.711,13.359,6.611,14.073,14.07h-6.481v2.963
  h6.481C34.839,28.944,28.942,34.841,21.48,35.555z"/>
</svg>
