<?xml version="1.0" encoding="utf-8"?>
<!-- Generator: Adobe Illustrator 17.0.0, SVG Export Plug-In . SVG Version: 6.00 Build 0)  -->
<!DOCTYPE svg PUBLIC "-//W3C//DTD SVG 1.1//EN" "http://www.w3.org/Graphics/SVG/1.1/DTD/svg11.dtd">
<svg version="1.1" id="Layer_1" xmlns="http://www.w3.org/2000/svg" xmlns:xlink="http://www.w3.org/1999/xlink" x="0px" y="0px"
   width="40px" height="40px" viewBox="0 0 40 40" enable-background="new 0 0 40 40" xml:space="preserve">
<path d="M21.263,41h-2.526C11.995,41,6.51,35.514,6.51,28.773V16.191c0-1.559,1.269-2.828,2.827-2.828
  c1.149,0.002,2.14,0.685,2.586,1.663V5.073c0-1.526,1.243-2.769,2.769-2.769c1.114,0,2.077,0.662,2.515,1.613V1.768
  C17.207,0.242,18.45-1,19.976-1s2.768,1.242,2.768,2.768v1.8c0.438-0.953,1.401-1.615,2.516-1.615c1.526,0,2.77,1.243,2.77,2.769
  V6.75c0.439-0.95,1.401-1.612,2.516-1.612c1.702,0,2.944,1.243,2.944,2.769v20.865C33.49,35.514,28.004,41,21.263,41z M9.335,15.141
  c-0.577,0-1.047,0.471-1.047,1.05v12.582c0,5.762,4.687,10.449,10.449,10.449h2.526c5.762,0,10.449-4.687,10.449-10.449V7.907
  c0-0.546-0.445-0.991-0.99-0.991c-0.722,0-1.167,0.445-1.167,0.991v11.986c0,0.911-0.742,1.652-1.652,1.652
  c-0.91,0-1.652-0.741-1.652-1.652V4.722c0-0.546-0.445-0.991-0.992-0.991c-0.545,0-0.99,0.445-0.99,0.991v15.171
  c0,0.911-0.742,1.652-1.652,1.652c-0.912,0-1.653-0.741-1.653-1.652V1.768c0-0.546-0.445-0.99-0.99-0.99
  c-0.547,0-0.991,0.444-0.991,0.99v18.125c0,0.911-0.741,1.652-1.652,1.652s-1.652-0.741-1.652-1.652V5.073
  c0-0.546-0.444-0.991-0.99-0.991c-0.546,0-0.991,0.445-0.991,0.991v14.82c0,0.911-0.742,1.652-1.652,1.652
  c-0.911,0-1.652-0.741-1.652-1.652v-3.702C10.397,15.612,9.921,15.142,9.335,15.141z"/>
</svg>
