<?xml version="1.0" encoding="utf-8"?>
<!-- Generator: Adobe Illustrator 17.0.0, SVG Export Plug-In . SVG Version: 6.00 Build 0)  -->
<!DOCTYPE svg PUBLIC "-//W3C//DTD SVG 1.1//EN" "http://www.w3.org/Graphics/SVG/1.1/DTD/svg11.dtd">
<svg version="1.1" id="Layer_1" xmlns="http://www.w3.org/2000/svg" xmlns:xlink="http://www.w3.org/1999/xlink" x="0px" y="0px"
   width="59.193px" height="49.01px" viewBox="0 0 59.193 49.01" enable-background="new 0 0 59.193 49.01" xml:space="preserve">
<path d="M11.21,10.5l10.683-3.511c1.569-0.516,3.061,0.974,2.543,2.543l-3.508,10.683c-0.468,1.429-2.275,1.857-3.336,0.794
  l-7.173-7.173C9.353,12.775,9.784,10.968,11.21,10.5z"/>
<circle cx="41.673" cy="36.192" r="5.932"/>
<path fill="none" stroke="#000000" stroke-miterlimit="10" d="M19.66,11.936l-7.519,7.519c-3.183,3.18-3.183,8.339,0,11.522l0,0
  c3.183,3.185,8.342,3.185,11.525,0l11.863-11.863c3.183-3.183,8.342-3.183,11.525,0l0,0c3.18,3.185,3.18,8.345,0,11.527
  l-6.503,6.498"/>
</svg>
