<?xml version="1.0" encoding="utf-8"?>
<!-- Generator: Adobe Illustrator 17.0.0, SVG Export Plug-In . SVG Version: 6.00 Build 0)  -->
<!DOCTYPE svg PUBLIC "-//W3C//DTD SVG 1.1//EN" "http://www.w3.org/Graphics/SVG/1.1/DTD/svg11.dtd">
<svg version="1.1" id="Layer_1" xmlns="http://www.w3.org/2000/svg" xmlns:xlink="http://www.w3.org/1999/xlink" x="0px" y="0px"
   width="40px" height="40px" viewBox="0 0 40 40" enable-background="new 0 0 40 40" xml:space="preserve">
<polygon points="34.642,12.649 31.648,15.643 32.891,16.886 22.118,16.886 22.118,6.108 23.363,7.352 26.357,4.358 20.001,-1.996 
  13.647,4.358 16.641,7.352 17.884,6.109 17.884,16.886 14.873,16.886 14.873,16.882 7.104,16.882 8.348,15.637 5.354,12.643 
  -1,18.999 5.354,25.353 8.348,22.359 7.105,21.116 12,21.116 12,21.12 17.884,21.12 17.884,24.127 17.88,24.127 17.88,31.895 
  16.637,30.652 13.643,33.646 19.997,40 26.351,33.646 23.357,30.652 22.114,31.895 22.114,25.708 22.118,25.708 22.118,21.12 
  32.889,21.12 31.648,22.36 34.642,25.355 41,19.003 "/>
</svg>
