<?xml version="1.0" encoding="utf-8"?>
<!-- Generator: Adobe Illustrator 17.0.0, SVG Export Plug-In . SVG Version: 6.00 Build 0)  -->
<!DOCTYPE svg PUBLIC "-//W3C//DTD SVG 1.1//EN" "http://www.w3.org/Graphics/SVG/1.1/DTD/svg11.dtd">
<svg version="1.1" id="Layer_1" xmlns="http://www.w3.org/2000/svg" xmlns:xlink="http://www.w3.org/1999/xlink" x="0px" y="0px"
   width="40px" height="40px" viewBox="0 0 40 40" enable-background="new 0 0 40 40" xml:space="preserve">
<g>
  <path d="M15.412,22.346v5.729c0,2.533,2.054,4.586,4.586,4.586s4.586-2.054,4.586-4.586v-5.729c1.784-0.136,3.19-1.623,3.19-3.442
    v-5.583c0-1.908-1.548-3.456-3.456-3.456h-1.282c1.691-1.028,2.82-2.886,2.82-5.009C25.856,1.622,23.235-1,20-1
    s-5.856,2.622-5.856,5.856c0,2.123,1.129,3.981,2.82,5.009h-1.282c-1.908,0-3.456,1.548-3.456,3.456v5.583
    C12.222,20.721,13.628,22.209,15.412,22.346z"/>
  <path d="M31.405,21.458c-0.737-0.481-1.726-0.273-2.207,0.464c-0.483,0.737-0.275,1.726,0.464,2.207
    c2.348,1.534,3.64,3.502,3.64,5.546c0,4.41-6.091,8.137-13.301,8.137S6.699,34.087,6.699,29.675c0-1.982,1.228-3.908,3.456-5.422
    c0.729-0.495,0.917-1.487,0.423-2.217s-1.487-0.917-2.217-0.423c-3.128,2.127-4.852,4.99-4.852,8.059
    c0,3.155,1.805,6.074,5.087,8.217C11.665,39.895,15.716,41,20,41s8.335-1.105,11.405-3.111c3.279-2.143,5.087-5.059,5.087-8.217
    S34.684,23.601,31.405,21.458z"/>
</g>
</svg>
