<?xml version="1.0" encoding="utf-8"?>
<!-- Generator: Adobe Illustrator 17.0.0, SVG Export Plug-In . SVG Version: 6.00 Build 0)  -->
<!DOCTYPE svg PUBLIC "-//W3C//DTD SVG 1.1//EN" "http://www.w3.org/Graphics/SVG/1.1/DTD/svg11.dtd">
<svg version="1.1" id="Layer_1" xmlns="http://www.w3.org/2000/svg" xmlns:xlink="http://www.w3.org/1999/xlink" x="0px" y="0px"
   width="40px" height="40px" viewBox="0 0 40 40" enable-background="new 0 0 40 40" xml:space="preserve">
<g>
  <path d="M0.398,30.339l-1.378,8.657c-0.089,0.585,0.111,1.122,0.485,1.497c0.37,0.374,0.915,0.578,1.493,0.485l8.664-1.382
    l1.73-1.73l-9.264-9.264L0.398,30.339z M8.181,37.67l-3.923,0.626l-2.56-2.563l0.622-3.919L8.181,37.67z"/>
  <path d="M40.248,5.388L34.61-0.25c-1.004-1-2.623-1-3.623,0l-1.708,1.708l9.261,9.264l1.708-1.708
    C41.252,8.014,41.252,6.388,40.248,5.388z"/>
  <polygon points="21.937,18.057 18.874,21.123 8.84,31.165 13.471,35.792 21.989,27.279 28.094,21.175 36.781,12.478 32.147,7.848   
    "/>
  <polygon points="20.145,15.756 20.145,15.756 30.105,5.803 27.516,3.214 18.774,11.956 18.774,11.956 4.206,26.531 6.792,29.109   
    "/>
</g>
</svg>
