<?xml version="1.0" encoding="utf-8"?>
<!-- Generator: Adobe Illustrator 17.0.0, SVG Export Plug-In . SVG Version: 6.00 Build 0)  -->
<!DOCTYPE svg PUBLIC "-//W3C//DTD SVG 1.1//EN" "http://www.w3.org/Graphics/SVG/1.1/DTD/svg11.dtd">
<svg version="1.1" id="Layer_1" xmlns="http://www.w3.org/2000/svg" xmlns:xlink="http://www.w3.org/1999/xlink" x="0px" y="0px"
   width="40px" height="40px" viewBox="0 0 40 40" enable-background="new 0 0 40 40" xml:space="preserve">
<g fill="#777">
  <path d="M38.717,34.438c-2.245,2.283-4.879,3.985-7.904,5.107c-3.024,1.122-6.363,1.683-10.015,1.683
    c-3.272,0-6.249-0.523-8.931-1.569c-2.682-1.046-4.974-2.501-6.876-4.365c-1.902-1.864-3.376-4.099-4.423-6.705
    C-0.477,25.982-1,23.139-1,20.057c0-3.043,0.571-5.856,1.712-8.446C1.853,9.024,3.413,6.78,5.391,4.878
    c1.978-1.902,4.289-3.395,6.933-4.48c2.644-1.084,5.469-1.626,8.474-1.626c2.587,0,5.098,0.38,7.533,1.141s4.594,1.902,6.477,3.424
    c1.883,1.522,3.386,3.424,4.508,5.707C40.439,11.326,41,14.008,41,17.09c0,2.283-0.304,4.301-0.913,6.049
    c-0.609,1.75-1.417,3.215-2.425,4.394c-1.008,1.179-2.178,2.064-3.51,2.654s-2.739,0.885-4.223,0.885
    c-1.712,0-2.967-0.418-3.766-1.255s-1.198-1.807-1.198-2.91h-0.228c-0.19,0.418-0.495,0.865-0.913,1.341
    c-0.418,0.476-0.932,0.923-1.541,1.341c-0.609,0.418-1.303,0.77-2.083,1.056c-0.78,0.285-1.645,0.428-2.596,0.428
    c-1.293,0-2.454-0.238-3.481-0.713c-1.027-0.476-1.893-1.122-2.596-1.94S10.28,26.61,9.899,25.45
    c-0.38-1.16-0.571-2.425-0.571-3.795c0-1.598,0.266-3.167,0.799-4.708c0.533-1.541,1.284-2.91,2.254-4.109
    c0.97-1.198,2.159-2.159,3.567-2.882c1.408-0.723,2.986-1.084,4.736-1.084c1.446,0,2.692,0.333,3.738,0.999
    c1.044,0.666,1.779,1.474,2.197,2.425h0.228l0.571-2.568h3.538l-2.283,10.614c-0.076,0.266-0.143,0.599-0.2,0.999
    c-0.057,0.399-0.124,0.818-0.2,1.255s-0.133,0.865-0.171,1.284s-0.057,0.761-0.057,1.027c0,0.342,0.029,0.675,0.086,0.999
    c0.057,0.323,0.19,0.628,0.399,0.913c0.209,0.285,0.495,0.514,0.856,0.685c0.361,0.171,0.846,0.257,1.455,0.257
    c0.951,0,1.817-0.266,2.596-0.799c0.78-0.533,1.443-1.255,1.997-2.168c0.549-0.913,0.98-1.997,1.284-3.253
    c0.304-1.255,0.457-2.606,0.457-4.052c0-2.473-0.409-4.651-1.227-6.534c-0.818-1.883-1.959-3.471-3.424-4.765
    c-1.465-1.291-3.196-2.264-5.193-2.91s-4.194-0.97-6.591-0.97c-2.625,0-5.003,0.457-7.133,1.37S9.643,5.848,8.102,7.446
    s-2.73,3.49-3.567,5.678S3.28,17.682,3.28,20.228c0,2.701,0.438,5.136,1.312,7.304s2.102,4.014,3.681,5.535
    c1.579,1.522,3.462,2.692,5.649,3.51c2.185,0.818,4.61,1.227,7.276,1.227c3.386,0,6.315-0.523,8.788-1.569
    c2.473-1.046,4.679-2.52,6.62-4.423L38.717,34.438z M20.492,12.296c-1.146,0-2.152,0.295-3.01,0.885
    c-0.861,0.59-1.595,1.341-2.209,2.254s-1.07,1.94-1.377,3.082c-0.307,1.141-0.459,2.264-0.459,3.367c0,0.533,0.067,1.141,0.2,1.826
    c0.133,0.685,0.373,1.332,0.716,1.94c0.345,0.609,0.813,1.113,1.405,1.512c0.592,0.399,1.346,0.599,2.266,0.599
    c1.298,0,2.409-0.323,3.324-0.97c0.918-0.647,1.662-1.455,2.237-2.425c0.573-0.97,0.994-2.007,1.263-3.11
    c0.266-1.103,0.399-2.13,0.399-3.082c0-0.723-0.076-1.436-0.228-2.14c-0.152-0.704-0.411-1.332-0.775-1.883
    s-0.849-0.999-1.462-1.341S21.408,12.296,20.492,12.296z"/>
</g>
</svg>
