<?xml version="1.0" encoding="utf-8"?>
<!-- Generator: Adobe Illustrator 17.0.0, SVG Export Plug-In . SVG Version: 6.00 Build 0)  -->
<!DOCTYPE svg PUBLIC "-//W3C//DTD SVG 1.1//EN" "http://www.w3.org/Graphics/SVG/1.1/DTD/svg11.dtd">
<svg version="1.1" id="Layer_1" xmlns="http://www.w3.org/2000/svg" xmlns:xlink="http://www.w3.org/1999/xlink" x="0px" y="0px"
   width="40px" height="40px" viewBox="0 0 40 40" enable-background="new 0 0 40 40" xml:space="preserve">
<path d="M42.501,35.087l-7.145-7.145c1.582-1.886,2.538-4.314,2.538-6.963c0-5.986-4.871-10.857-10.858-10.857
  c-0.494,0-0.978,0.045-1.455,0.109C25.049,3.788,19.645-1.294,13.068-1.294c-6.93,0-12.567,5.637-12.567,12.567
  c0,6.463,5.307,18.879,12.567,18.879c1.843,0,3.72-0.841,5.471-2.437c1.99,2.505,5.056,4.12,8.498,4.12
  c2.821,0,5.386-1.09,7.319-2.861l7.129,7.129L42.501,35.087z M13.068,28.714c-5.927,0-11.129-10.87-11.129-17.44
  c0-6.137,4.992-11.129,11.129-11.129c5.882,0,10.7,4.591,11.09,10.376c-1.834,0.506-3.48,1.471-4.79,2.779
  c0.219-0.659,0.366-1.351,0.366-2.083c0-3.676-2.99-6.667-6.666-6.667s-6.667,2.991-6.667,6.667s2.991,6.666,6.667,6.666
  c1.57,0,2.996-0.568,4.136-1.48c-0.65,1.392-1.024,2.939-1.024,4.574c0,2.024,0.566,3.913,1.534,5.537
  C16.179,27.969,14.618,28.714,13.068,28.714z M18.296,11.217c0,2.883-2.345,5.228-5.228,5.228S7.84,14.1,7.84,11.217
  s2.346-5.229,5.229-5.229S18.296,8.334,18.296,11.217z M27.036,30.397c-5.193,0-9.418-4.225-9.418-9.419s4.225-9.419,9.418-9.419
  c5.194,0,9.419,4.225,9.419,9.419S32.231,30.397,27.036,30.397z"/>
</svg>
