<?xml version="1.0" encoding="utf-8"?>
<!-- Generator: Adobe Illustrator 17.0.0, SVG Export Plug-In . SVG Version: 6.00 Build 0)  -->
<!DOCTYPE svg PUBLIC "-//W3C//DTD SVG 1.1//EN" "http://www.w3.org/Graphics/SVG/1.1/DTD/svg11.dtd">
<svg version="1.1" id="Layer_1" xmlns="http://www.w3.org/2000/svg" xmlns:xlink="http://www.w3.org/1999/xlink" x="0px" y="0px"
   width="40px" height="40px" viewBox="0 0 40 40" enable-background="new 0 0 40 40" xml:space="preserve">
<path d="M42.351,37.153l-6.278-6.278c1.383-1.68,2.215-3.83,2.215-6.172c0-4.504-3.082-8.291-7.244-9.392L16.396,3.496l-8.527,6.878
  V6.533H3.878v7.061l-3.527,2.845l1.683,1.681l14.362-6.375l8.52,3.951c-1.004,0.408-1.921,0.98-2.726,1.681l-5.793-1.988
  L3.878,19.687v12.519h18.507c1.681,1.387,3.835,2.221,6.18,2.221c2.495,0,4.766-0.952,6.489-2.503l6.263,6.263L42.351,37.153z
   M5.832,20.955l10.566-3.263l4.294,1.327c-0.855,1.18-1.449,2.556-1.704,4.05h-6.889v3.623h6.946
  c0.286,1.372,0.869,2.633,1.668,3.727H5.832V20.955z M28.564,32.965c-4.556,0-8.262-3.706-8.262-8.261s3.706-8.261,8.262-8.261
  c4.555,0,8.26,3.706,8.26,8.261S33.119,32.965,28.564,32.965z"/>
</svg>
