<?xml version="1.0" encoding="utf-8"?>
<!-- Generator: Adobe Illustrator 16.0.0, SVG Export Plug-In . SVG Version: 6.00 Build 0)  -->
<!DOCTYPE svg PUBLIC "-//W3C//DTD SVG 1.1//EN" "http://www.w3.org/Graphics/SVG/1.1/DTD/svg11.dtd">
<svg version="1.1" id="Layer_1" xmlns="http://www.w3.org/2000/svg" xmlns:xlink="http://www.w3.org/1999/xlink" x="0px" y="0px"
   width="20px" height="20px" viewBox="0 0 20 20" enable-background="new 0 0 20 20" xml:space="preserve">
<path d="M10,2.701c1.469,0,2.893,0.177,4.01,0.497c0.776,0.223,1.227,0.462,1.459,0.627c-0.232,0.166-0.683,0.405-1.459,0.628
  C12.893,4.773,11.469,4.95,10,4.95S7.107,4.773,5.99,4.453C5.214,4.23,4.764,3.991,4.531,3.825C4.764,3.66,5.214,3.421,5.99,3.198
  C7.107,2.878,8.531,2.701,10,2.701 M10,1.352c-3.851,0-6.973,1.107-6.973,2.474C3.027,5.192,6.149,6.3,10,6.3
  s6.973-1.107,6.973-2.475C16.973,2.459,13.851,1.352,10,1.352L10,1.352z"/>
<g>
  <path d="M10,7.555c-3.851,0-6.973-1.107-6.973-2.474c0,0,0.024,2.162,0.006,2.669C3.029,7.778,3.027,7.809,3.027,7.84
    c0,1.366,3.122,2.474,6.973,2.474s6.973-1.107,6.973-2.474V5.081C16.973,6.447,13.851,7.555,10,7.555z M10,9.688
    c-0.381,0-0.69-0.309-0.69-0.689s0.31-0.69,0.69-0.69s0.689,0.31,0.689,0.69S10.381,9.688,10,9.688z"/>
</g>
<g>
  <path d="M10,11.723c-3.851,0-6.973-1.107-6.973-2.474c0,0,0.024,2.162,0.006,2.669c-0.004,0.028-0.006,0.058-0.006,0.09
    c0,1.366,3.122,2.474,6.973,2.474s6.973-1.107,6.973-2.474V9.249C16.973,10.615,13.851,11.723,10,11.723z M10,13.827
    c-0.381,0-0.69-0.309-0.69-0.69c0-0.38,0.31-0.689,0.69-0.689s0.689,0.31,0.689,0.689C10.689,13.519,10.381,13.827,10,13.827z"/>
</g>
<g>
  <path d="M10,15.891c-3.851,0-6.973-1.107-6.973-2.475c0,0,0.024,2.163,0.006,2.669c-0.004,0.029-0.006,0.059-0.006,0.091
    c0,1.366,3.122,2.474,6.973,2.474s6.973-1.107,6.973-2.474v-2.76C16.973,14.783,13.851,15.891,10,15.891z M10,17.965
    c-0.381,0-0.69-0.309-0.69-0.689s0.31-0.689,0.69-0.689s0.689,0.309,0.689,0.689S10.381,17.965,10,17.965z"/>
</g>
</svg>
