<?xml version="1.0" encoding="utf-8"?>
<!-- Generator: Adobe Illustrator 17.0.0, SVG Export Plug-In . SVG Version: 6.00 Build 0)  -->
<!DOCTYPE svg PUBLIC "-//W3C//DTD SVG 1.1//EN" "http://www.w3.org/Graphics/SVG/1.1/DTD/svg11.dtd">
<svg version="1.1" id="Layer_1" xmlns="http://www.w3.org/2000/svg" xmlns:xlink="http://www.w3.org/1999/xlink" x="0px" y="0px"
   width="40px" height="40px" viewBox="0 0 40 40" enable-background="new 0 0 40 40" xml:space="preserve">
<g>
  <path fill="#001AA9" d="M39.601,19.947c0-2.24-1.821-4.06-4.06-4.06H4.18c-2.24,0-4.06,1.821-4.06,4.06v5.599
    c0,2.24,1.821,4.06,4.06,4.06h31.36c2.24,0,4.06-1.821,4.06-4.06V19.947z M9.921,24.847c0,0.701-0.561,1.26-1.26,1.26h-4.2
    c-0.701,0-1.26-0.561-1.26-1.26v-4.2c0-0.701,0.561-1.26,1.26-1.26h4.2c0.701,0,1.26,0.561,1.26,1.26V24.847z M27.56,25.685
    c0,0.279-0.279,0.419-0.419,0.419H12.86c-0.279,0-0.419-0.279-0.419-0.419v-0.419c0-0.279,0.279-0.419,0.419-0.419H27.14
    c0.279,0,0.419,0.279,0.419,0.419V25.685z M27.56,23.166c0,0.279-0.279,0.419-0.419,0.419H12.86c-0.279,0-0.419-0.279-0.419-0.419
    v-0.419c0-0.279,0.279-0.419,0.419-0.419H27.14c0.279,0,0.419,0.279,0.419,0.419V23.166z M27.56,20.366
    c0,0.279-0.279,0.419-0.419,0.419H12.86c-0.279,0-0.419-0.279-0.419-0.419v-0.419c0-0.279,0.279-0.419,0.419-0.419H27.14
    c0.279,0,0.419,0.279,0.419,0.419V20.366z M36.8,24.847c0,0.701-0.561,1.26-1.26,1.26h-4.2c-0.701,0-1.26-0.561-1.26-1.26v-4.2
    c0-0.701,0.561-1.26,1.26-1.26h4.2c0.701,0,1.26,0.561,1.26,1.26V24.847z"/>
  <path fill="#001AA9" d="M36.381,14.906l-2.24-7.981c-0.419-1.539-1.821-2.519-3.359-2.519H9.223c-1.539,0-2.941,1.12-3.359,2.519
    l-2.24,7.981H36.381z"/>
  <path fill="#001AA9" d="M3.34,30.447v2.24c0,0.701,0.561,1.26,1.26,1.26h4.34c0.701,0,1.12-0.561,1.12-1.26v-2.24H3.34z"/>
  <path fill="#001AA9" d="M36.8,30.447h-6.719v2.24c0,0.701,0.419,1.26,1.12,1.26h4.34c0.701,0,1.26-0.561,1.26-1.26V30.447
    L36.8,30.447z"/>
  <path fill="#001AA9" d="M3.901,10.985H0.96c-1.12,0-1.96,0.84-1.96,1.96s0.84,1.96,1.96,1.96h1.821L3.901,10.985z"/>
  <path fill="#001AA9" d="M36.099,10.985h2.941c1.12,0,1.96,0.84,1.96,1.96s-0.84,1.96-1.96,1.96h-1.821L36.099,10.985z"/>
</g>
</svg>
