<?xml version="1.0" encoding="utf-8"?>
<!-- Generator: Adobe Illustrator 17.0.0, SVG Export Plug-In . SVG Version: 6.00 Build 0)  -->
<!DOCTYPE svg PUBLIC "-//W3C//DTD SVG 1.1//EN" "http://www.w3.org/Graphics/SVG/1.1/DTD/svg11.dtd">
<svg version="1.1" id="Layer_1" xmlns="http://www.w3.org/2000/svg" xmlns:xlink="http://www.w3.org/1999/xlink" x="0px" y="0px"
   width="20px" height="20px" viewBox="0 0 20 20" enable-background="new 0 0 20 20" xml:space="preserve">
<g>
  <path d="M2.913,13.949v3.716h14.173v-3.716C17.087,13.949,2.913,13.949,2.913,13.949z M10,16.457c-0.359,0-0.65-0.29-0.65-0.651
    c0-0.36,0.291-0.649,0.65-0.649c0.36,0,0.652,0.289,0.652,0.649C10.652,16.167,10.36,16.457,10,16.457z"/>
  <path d="M2.913,8.938v3.717h14.173V8.938H2.913z M10,11.446c-0.359,0-0.65-0.29-0.65-0.65s0.291-0.65,0.65-0.65
    c0.36,0,0.652,0.29,0.652,0.65S10.36,11.446,10,11.446z"/>
  <path d="M2.913,3.926v3.717h14.173V3.926H2.913z M10,6.435c-0.359,0-0.65-0.291-0.65-0.651c0-0.359,0.291-0.651,0.65-0.651
    c0.36,0,0.652,0.291,0.652,0.651C10.652,6.144,10.36,6.435,10,6.435z"/>
  <line fill="none" stroke="#000000" stroke-miterlimit="10" x1="2.913" y1="2.335" x2="17.087" y2="2.335"/>
</g>
</svg>
