<?xml version="1.0" encoding="utf-8"?>
<!-- Generator: Adobe Illustrator 17.0.0, SVG Export Plug-In . SVG Version: 6.00 Build 0)  -->
<!DOCTYPE svg PUBLIC "-//W3C//DTD SVG 1.1//EN" "http://www.w3.org/Graphics/SVG/1.1/DTD/svg11.dtd">
<svg version="1.1" id="Layer_1" xmlns="http://www.w3.org/2000/svg" xmlns:xlink="http://www.w3.org/1999/xlink" x="0px" y="0px"
   width="20px" height="20px" viewBox="0 0 20 20" enable-background="new 0 0 20 20" xml:space="preserve">
<path d="M16.548,3.111l-7.844-3.39C7.701-0.711,6.563-0.81,5.501-0.556L3.328-0.034C2.876,0.074,2.557,0.42,2.458,0.86L2.417,0.843
  v14.824c0,0.508,0.303,0.966,0.775,1.168l9.082,3.787c0.118,0.049,0.241,0.073,0.368,0.073c0.25,0,0.487-0.096,0.668-0.271
  c0.188-0.182,0.292-0.427,0.292-0.689V6.67c0-0.62-0.368-1.179-0.938-1.423l-0.542-0.233c-0.004-0.002-0.006-0.005-0.01-0.007
  l-8.586-3.71C3.419,1.25,3.411,1.158,3.415,1.107c0.004-0.051,0.029-0.141,0.146-0.169l2.174-0.522
  c0.851-0.204,1.766-0.124,2.573,0.223l7.844,3.39c0.265,0.114,0.436,0.375,0.436,0.663v13.146c0,0.276,0.224,0.5,0.5,0.5
  s0.5-0.224,0.5-0.5V4.692C17.587,4.004,17.179,3.384,16.548,3.111z M10.409,8.418v0.629L5.384,6.948
  C5.208,6.874,5.094,6.703,5.094,6.511V5.883l5.024,2.097C10.295,8.054,10.409,8.226,10.409,8.418z"/>
</svg>
