<?xml version="1.0" encoding="utf-8"?>
<!-- Generator: Adobe Illustrator 17.0.0, SVG Export Plug-In . SVG Version: 6.00 Build 0)  -->
<!DOCTYPE svg PUBLIC "-//W3C//DTD SVG 1.1//EN" "http://www.w3.org/Graphics/SVG/1.1/DTD/svg11.dtd">
<svg version="1.1" id="Layer_1" xmlns="http://www.w3.org/2000/svg" xmlns:xlink="http://www.w3.org/1999/xlink" x="0px" y="0px"
   width="40px" height="40px" viewBox="0 0 40 40" enable-background="new 0 0 40 40" xml:space="preserve">
<path d="M16.701,12.798c-1.345,0.784-2.572,1.473-3.762,2.215c-0.186,0.117-0.28,0.475-0.311,0.733
  c-0.25,1.996-0.47,3.999-0.698,5.997c-0.121,1.097-0.923,1.804-1.934,1.691c-1.002-0.11-1.702-0.996-1.599-2.049
  c0.267-2.676,0.53-5.359,0.837-8.037c0.029-0.285,0.241-0.642,0.484-0.793c2.583-1.643,5.187-3.259,7.803-4.849
  c0.285-0.172,0.751-0.291,1.027-0.177c1.06,0.444,2.135,0.905,3.098,1.524c0.978,0.634,1.393,1.623,1.376,2.848
  c-0.051,3.319-0.035,6.639,0.009,9.956c0,0.422,0.216,0.936,0.508,1.248c1.468,1.574,3.005,3.089,4.502,4.643
  c0.243,0.258,0.466,0.578,0.587,0.912c1.122,3.087,2.221,6.185,3.325,9.28c0.45,1.259-0.038,2.435-1.181,2.892
  c-1.168,0.468-2.382-0.068-2.886-1.349c-1.197-3.032-2.345-6.081-3.544-9.113c-0.155-0.404-0.431-0.795-0.742-1.1
  c-2.133-2.084-4.297-4.131-6.41-6.224c-0.263-0.261-0.462-0.722-0.462-1.093c-0.044-2.694-0.026-5.39-0.026-8.086
  C16.701,13.564,16.701,13.264,16.701,12.798z"/>
<path d="M16.346,23.407c1.086,1.02,2.115,1.947,3.082,2.932c0.144,0.146,0.062,0.605-0.029,0.883
  c-1.217,3.665-3.782,6.472-6.07,9.457c-0.757,0.989-1.524,1.974-2.29,2.957c-0.846,1.084-2.113,1.274-3.135,0.481
  c-0.958-0.733-1.095-2.045-0.32-3.107c1.824-2.491,3.738-4.926,5.46-7.492c1.108-1.66,1.939-3.513,2.892-5.279
  C16.057,24.019,16.158,23.787,16.346,23.407z"/>
<path d="M24.202,2.959c-0.009,2.162-1.83,3.966-3.97,3.93c-2.151-0.038-3.904-1.85-3.882-4.016C16.372,0.751,18.15-1,20.278-1
  C22.44-1,24.211,0.784,24.202,2.959z"/>
<path d="M23.919,15.772c1.093,0.919,1.974,1.656,2.848,2.398c0.824,0.696,1.652,1.38,2.455,2.095c0.87,0.771,0.98,1.766,0.325,2.557
  c-0.634,0.771-1.707,0.835-2.586,0.139c-0.881-0.709-1.762-1.424-2.632-2.146c-0.163-0.137-0.389-0.336-0.393-0.508
  C23.908,18.877,23.919,17.448,23.919,15.772z"/>
</svg>
