<?xml version="1.0" encoding="utf-8"?>
<!-- Generator: Adobe Illustrator 17.0.0, SVG Export Plug-In . SVG Version: 6.00 Build 0)  -->
<!DOCTYPE svg PUBLIC "-//W3C//DTD SVG 1.1//EN" "http://www.w3.org/Graphics/SVG/1.1/DTD/svg11.dtd">
<svg version="1.1" id="Layer_1" 
  xmlns="http://www.w3.org/2000/svg" 
  xmlns:xlink="http://www.w3.org/1999/xlink" x="0px" y="0px" width="40px" height="40px" viewBox="0 0 40 40" enable-background="new 0 0 40 40" xml:space="preserve">
  <g>
    <g>
      <path d="M20.002,6.006c10.557,0,19.148,8.679,19.148,19.348c0,3.882-1.298,7.138-2.017,8.64H2.825
      c-0.708-1.4-1.971-4.49-1.971-8.64C0.852,14.685,9.443,6.006,20.002,6.006 M20.002,4.154C8.405,4.154-1,13.646-1,25.354
      c0,6.349,2.739,10.493,2.739,10.493h36.512c0,0,2.749-4.525,2.749-10.493C41.002,13.644,31.598,4.154,20.002,4.154L20.002,4.154z" />
    </g>
    <path d="M25.936,9.782h-0.263L20.072,20.76L14.266,9.688l-7.944,20H4.269v1.608h11.248v-1.608h-2.232l2.232-6.249l4.555,7.857
    l4.375-7.857l2.23,6.249h-2.23v1.608h11.157v-1.608h-1.936L25.936,9.782z"/>
  </g>
</svg>
