<?xml version="1.0" encoding="utf-8"?>
<!-- Generator: Adobe Illustrator 17.0.0, SVG Export Plug-In . SVG Version: 6.00 Build 0)  -->
<!DOCTYPE svg PUBLIC "-//W3C//DTD SVG 1.1//EN" "http://www.w3.org/Graphics/SVG/1.1/DTD/svg11.dtd">
<svg version="1.1" id="Layer_1" xmlns="http://www.w3.org/2000/svg" xmlns:xlink="http://www.w3.org/1999/xlink" x="0px" y="0px"
   width="22.676px" height="13.77px" viewBox="0 0 22.676 13.77" enable-background="new 0 0 22.676 13.77" xml:space="preserve">
<g>
  <path d="M22.677,6.661l-1.67-0.599l-1.285,0.459c-0.249-0.403-0.557-0.765-0.912-1.077l3.867-1.385L11.339,0L-0.001,4.06
    L11.034,8.01c-0.07,0.325-0.109,0.662-0.109,1.006c0,0.123,0.006,0.244,0.016,0.364l-9.27-3.32l-1.672,0.6l11.227,4.02
    c0.186,0.494,0.45,0.949,0.779,1.351l-0.667,0.237L1.671,8.807l-1.672,0.599l11.339,4.06l1.597-0.571
    c0.775,0.551,1.723,0.876,2.743,0.876c2.189,0,4.033-1.485,4.584-3.501l2.413-0.863l-1.67-0.599l-0.573,0.207
    C20.433,8.502,20.351,8.01,20.2,7.548L22.677,6.661z M15.679,12.944c-2.165,0-3.928-1.762-3.928-3.928
    c0-2.167,1.763-3.927,3.928-3.927c2.166,0,3.928,1.762,3.928,3.927C19.607,11.182,17.845,12.944,15.679,12.944z"/>
  <polygon points="16.092,6.139 15.267,6.139 15.267,8.604 12.801,8.604 12.801,9.428 15.267,9.428 15.267,11.894 16.092,11.894 
    16.092,9.428 18.557,9.428 18.557,8.604 16.092,8.604   "/>
</g>
</svg>
