<?xml version="1.0" encoding="utf-8"?>
<!-- Generator: Adobe Illustrator 17.0.0, SVG Export Plug-In . SVG Version: 6.00 Build 0)  -->
<!DOCTYPE svg PUBLIC "-//W3C//DTD SVG 1.1//EN" "http://www.w3.org/Graphics/SVG/1.1/DTD/svg11.dtd">
<svg version="1.1" id="Layer_1" xmlns="http://www.w3.org/2000/svg" xmlns:xlink="http://www.w3.org/1999/xlink" x="0px" y="0px"
     width="40px" height="40px" viewBox="0 0 22.677 13.77" enable-background="new 0 0 22.677 13.77" xml:space="preserve">
  <g>
    <path d="M22.678,5.281L17.74,3.513c-0.295-0.143-0.607-0.254-0.931-0.333l-5.469-1.958L0,5.281l11.164,3.997
    c0.624,1.897,2.411,3.272,4.515,3.272c2.621,0,4.753-2.133,4.753-4.754c0-0.565-0.099-1.107-0.281-1.611L22.678,5.281z
     M15.679,11.723c-2.165,0-3.927-1.762-3.927-3.928s1.763-3.928,3.927-3.928c2.166,0,3.928,1.762,3.928,3.928
    S17.845,11.723,15.679,11.723z"/>
    <polygon points="16.092,4.919 15.266,4.919 15.266,7.382 12.802,7.382 12.802,8.209 15.266,8.209 15.266,10.674 16.092,10.674 
    16.092,8.209 18.557,8.209 18.557,7.382 16.092,7.382   "/>
  </g>
</svg>
