<?xml version="1.0" encoding="utf-8"?>
<!-- Generator: Adobe Illustrator 17.0.0, SVG Export Plug-In . SVG Version: 6.00 Build 0)  -->
<!DOCTYPE svg PUBLIC "-//W3C//DTD SVG 1.1//EN" "http://www.w3.org/Graphics/SVG/1.1/DTD/svg11.dtd">
<svg version="1.1" id="Layer_1" xmlns="http://www.w3.org/2000/svg" xmlns:xlink="http://www.w3.org/1999/xlink" x="0px" y="0px"
   width="40px" height="40px" viewBox="0 0 40 40" enable-background="new 0 0 40 40" xml:space="preserve">
<g>
  <path d="M40.64,19.288c-0.087-0.128-2.142-3.088-5.682-6.081c-2.092-1.766-4.27-3.175-6.471-4.188
    C26,7.877,23.482,7.239,20.97,7.112c-0.303-0.021-0.607-0.033-0.914-0.033c-0.308,0-0.611,0.01-0.915,0.033
    c-2.505,0.127-5.032,0.764-7.513,1.908c-2.206,1.012-4.384,2.421-6.474,4.188C1.613,16.2-0.443,19.16-0.528,19.288l-0.415,0.596
    l0.425,0.593c0.087,0.127,2.207,3.081,5.781,6.069c2.105,1.765,4.288,3.174,6.477,4.186c2.454,1.132,4.919,1.771,7.36,1.903
    c0.318,0.025,0.637,0.036,0.958,0.036c0.319,0,0.64-0.012,0.965-0.036c2.433-0.133,4.9-0.77,7.353-1.903
    c2.188-1.012,4.369-2.421,6.479-4.186c3.572-2.988,5.691-5.941,5.783-6.069l0.42-0.593L40.64,19.288z M20.892,30.559
    c-0.283,0.016-0.56,0.026-0.836,0.026c-0.277,0-0.553-0.01-0.836-0.026c-5.519-0.426-9.881-5.055-9.881-10.683
    c0-5.639,4.379-10.275,9.911-10.688c0.272-0.012,0.535-0.021,0.807-0.021c0.263,0,0.535,0.01,0.807,0.021
    c5.531,0.412,9.911,5.049,9.911,10.688C30.775,25.504,26.41,30.132,20.892,30.559z M1.628,19.867
    c0.765-0.991,2.482-3.06,4.912-5.106c1.004-0.848,2.031-1.607,3.07-2.268c-1.478,2.087-2.352,4.634-2.352,7.383
    c0,2.685,0.833,5.18,2.253,7.241c-0.97-0.63-1.929-1.34-2.879-2.133C4.175,22.934,2.413,20.853,1.628,19.867z M33.518,24.952
    c-0.961,0.803-1.936,1.528-2.919,2.165c1.421-2.061,2.253-4.556,2.253-7.241c0-2.747-0.872-5.295-2.351-7.383
    c1.04,0.662,2.064,1.421,3.068,2.268c2.431,2.046,4.15,4.115,4.91,5.106C37.707,20.85,35.965,22.904,33.518,24.952z"/>
  <circle cx="20.056" cy="19.876" r="2.262"/>
</g>
</svg>
