<?xml version="1.0" encoding="utf-8"?>
<!-- Generator: Adobe Illustrator 17.0.0, SVG Export Plug-In . SVG Version: 6.00 Build 0)  -->
<!DOCTYPE svg PUBLIC "-//W3C//DTD SVG 1.1//EN" "http://www.w3.org/Graphics/SVG/1.1/DTD/svg11.dtd">
<svg version="1.1" id="Layer_1" xmlns="http://www.w3.org/2000/svg" xmlns:xlink="http://www.w3.org/1999/xlink" x="0px" y="0px"
   width="40px" height="40px" viewBox="0 0 40 40" enable-background="new 0 0 40 40" xml:space="preserve">
<g>
  <path fill="#BAC5CC" d="M41,17.977l-3.095-1.11l-7.163,2.565v-2.6L41,13.16L20,5.643L-1,13.16l10.258,3.673v2.599l-7.161-2.565
    L-1,17.977L9.258,21.65v2.868l-7.161-2.563L-1,23.064l10.258,3.671v7.622h3.485h4.386h13.612v-7.622L41,23.064l-3.095-1.11
    l-7.163,2.564V21.65L41,17.977z M14.39,13.045h11.222v5.698H14.39V13.045z M29.095,32.711H17.129V31.41h-4.386v1.301h-1.839V13.045
    h1.839v7.344h14.514v-7.344h1.838V32.711z"/>
  <path fill="#BAC5CC" d="M20.001,21.488c-2.241,0-4.065,1.824-4.065,4.065s1.824,4.064,4.065,4.064s4.064-1.823,4.064-4.064
    S22.242,21.488,20.001,21.488z M20.001,27.971c-1.334,0-2.419-1.085-2.419-2.418c0-1.334,1.085-2.419,2.419-2.419
    c1.333,0,2.418,1.085,2.418,2.419C22.419,26.886,21.333,27.971,20.001,27.971z"/>
  <rect x="23.311" y="14.495" fill="#BAC5CC" width="1.646" height="2.854"/>
</g>
</svg>
