<?xml version="1.0" encoding="iso-8859-1"?>
<!-- Generator: Adobe Illustrator 19.0.0, SVG Export Plug-In . SVG Version: 6.00 Build 0)  -->
<svg version="1.1" id="Capa_1" xmlns="http://www.w3.org/2000/svg" xmlns:xlink="http://www.w3.org/1999/xlink" x="0px" y="0px"
   viewBox="0 0 480.016 480.016" style="enable-background:new 0 0 480.016 480.016;" xml:space="preserve">
<linearGradient id="SVGID_1_" gradientUnits="userSpaceOnUse" x1="-26.86" y1="557.813" x2="-26.86" y2="619.638" gradientTransform="matrix(8 0 0 -8 454.8879 4941.0723)">
  <stop  offset="0" style="stop-color:#006DF0"/>
  <stop  offset="1" style="stop-color:#00E7F0"/>
</linearGradient>
<path style="fill:url(#SVGID_1_);" d="M456.016,48.008h-72v-24c0-13.255-10.745-24-24-24h-248c-0.176,0-0.328,0.08-0.504,0.096
  c-0.631,0.041-1.254,0.16-1.856,0.352c-0.271,0.066-0.539,0.149-0.8,0.248c-0.838,0.341-1.612,0.822-2.288,1.424l-104,96
  c-0.71,0.687-1.286,1.501-1.696,2.4c-0.119,0.26-0.221,0.527-0.304,0.8c-0.262,0.718-0.418,1.469-0.464,2.232
  c0,0.168-0.104,0.32-0.104,0.488v303.96c0,13.255,10.745,24,24,24h72v24c0,13.255,10.745,24,24,24h336.016c13.255,0,24-10.745,24-24
  v-384C480.016,58.753,469.271,48.008,456.016,48.008z M104.016,26.28v61.728c0,4.418-3.582,8-8,8H28.48L104.016,26.28z
   M24.016,416.008c-4.418,0-8-3.582-8-8v-296h80c13.255,0,24-10.745,24-24v-72h240c4.418,0,8,3.582,8,8v24h-160
  c-0.176,0-0.328,0.08-0.504,0.096c-0.628,0.041-1.249,0.16-1.848,0.352c-0.272,0.065-0.539,0.148-0.8,0.248
  c-0.838,0.341-1.612,0.822-2.288,1.424l-104,96c-0.71,0.687-1.285,1.501-1.696,2.4c-0.119,0.26-0.221,0.527-0.304,0.8
  c-0.262,0.718-0.418,1.469-0.464,2.232c0,0.168-0.104,0.32-0.104,0.488v263.96H24.016z M200.016,74.28v61.728c0,4.418-3.582,8-8,8
  H124.48L200.016,74.28z M464.016,456.008c0,4.418-3.582,8-8,8h-336c-4.418,0-8-3.582-8-8v-296h80c13.255,0,24-10.745,24-24v-72h240
  c4.418,0,8,3.582,8,8V456.008z"/>
<g>
  
    <linearGradient id="SVGID_2_" gradientUnits="userSpaceOnUse" x1="-20.859" y1="557.813" x2="-20.859" y2="619.638" gradientTransform="matrix(8 0 0 -8 454.8879 4941.0723)">
    <stop  offset="0" style="stop-color:#006DF0"/>
    <stop  offset="1" style="stop-color:#00E7F0"/>
  </linearGradient>
  <path style="fill:url(#SVGID_2_);" d="M408.016,256.008h-240c-4.418,0-8,3.582-8,8s3.582,8,8,8h240c4.418,0,8-3.582,8-8
    S412.434,256.008,408.016,256.008z"/>
  
    <linearGradient id="SVGID_3_" gradientUnits="userSpaceOnUse" x1="-20.859" y1="557.813" x2="-20.859" y2="619.638" gradientTransform="matrix(8 0 0 -8 454.8879 4941.0723)">
    <stop  offset="0" style="stop-color:#006DF0"/>
    <stop  offset="1" style="stop-color:#00E7F0"/>
  </linearGradient>
  <path style="fill:url(#SVGID_3_);" d="M408.016,304.008h-240c-4.418,0-8,3.582-8,8s3.582,8,8,8h240c4.418,0,8-3.582,8-8
    S412.434,304.008,408.016,304.008z"/>
  
    <linearGradient id="SVGID_4_" gradientUnits="userSpaceOnUse" x1="-20.859" y1="557.813" x2="-20.859" y2="619.638" gradientTransform="matrix(8 0 0 -8 454.8879 4941.0723)">
    <stop  offset="0" style="stop-color:#006DF0"/>
    <stop  offset="1" style="stop-color:#00E7F0"/>
  </linearGradient>
  <path style="fill:url(#SVGID_4_);" d="M408.016,352.008h-240c-4.418,0-8,3.582-8,8s3.582,8,8,8h240c4.418,0,8-3.582,8-8
    S412.434,352.008,408.016,352.008z"/>
  
    <linearGradient id="SVGID_5_" gradientUnits="userSpaceOnUse" x1="-20.859" y1="557.813" x2="-20.859" y2="619.638" gradientTransform="matrix(8 0 0 -8 454.8879 4941.0723)">
    <stop  offset="0" style="stop-color:#006DF0"/>
    <stop  offset="1" style="stop-color:#00E7F0"/>
  </linearGradient>
  <path style="fill:url(#SVGID_5_);" d="M408.016,400.008h-240c-4.418,0-8,3.582-8,8s3.582,8,8,8h240c4.418,0,8-3.582,8-8
    S412.434,400.008,408.016,400.008z"/>
</g>
<g>
  
    <linearGradient id="SVGID_6_" gradientUnits="userSpaceOnUse" x1="-16.859" y1="557.813" x2="-16.859" y2="619.638" gradientTransform="matrix(8 0 0 -8 454.8879 4941.0723)">
    <stop  offset="0" style="stop-color:#006DF0"/>
    <stop  offset="1" style="stop-color:#00E7F0"/>
  </linearGradient>
  <path style="fill:url(#SVGID_6_);" d="M408.016,208.008h-176c-4.418,0-8,3.582-8,8s3.582,8,8,8h176c4.418,0,8-3.582,8-8
    S412.434,208.008,408.016,208.008z"/>
  
    <linearGradient id="SVGID_7_" gradientUnits="userSpaceOnUse" x1="-33.859" y1="557.813" x2="-33.859" y2="619.638" gradientTransform="matrix(8 0 0 -8 454.8879 4941.0723)">
    <stop  offset="0" style="stop-color:#006DF0"/>
    <stop  offset="1" style="stop-color:#00E7F0"/>
  </linearGradient>
  <path style="fill:url(#SVGID_7_);" d="M168.016,224.008h32c4.418,0,8-3.582,8-8s-3.582-8-8-8h-32c-4.418,0-8,3.582-8,8
    S163.598,224.008,168.016,224.008z"/>
</g>
<g>
</g>
<g>
</g>
<g>
</g>
<g>
</g>
<g>
</g>
<g>
</g>
<g>
</g>
<g>
</g>
<g>
</g>
<g>
</g>
<g>
</g>
<g>
</g>
<g>
</g>
<g>
</g>
<g>
</g>
</svg>
