<?xml version="1.0" encoding="iso-8859-1"?>
<!-- Generator: Adobe Illustrator 19.0.0, SVG Export Plug-In . SVG Version: 6.00 Build 0)  -->
<svg version="1.1" id="Capa_1" xmlns="http://www.w3.org/2000/svg" xmlns:xlink="http://www.w3.org/1999/xlink" x="0px" y="0px"
   viewBox="0 0 480.013 480.013" style="enable-background:new 0 0 480.013 480.013;" xml:space="preserve">
<linearGradient id="SVGID_1_" gradientUnits="userSpaceOnUse" x1="-47.8695" y1="557.6234" x2="-47.8695" y2="619.3904" gradientTransform="matrix(8 0 0 -8 622.9626 4941)">
  <stop  offset="0" style="stop-color:#006DF0"/>
  <stop  offset="1" style="stop-color:#00E7F0"/>
</linearGradient>
<path style="fill:url(#SVGID_1_);" d="M408.005,313.688V24c0-13.255-10.745-24-24-24h-248c-0.176,0-0.328,0.08-0.504,0.096
  c-0.631,0.041-1.254,0.16-1.856,0.352c-0.271,0.066-0.539,0.149-0.8,0.248c-0.838,0.341-1.612,0.822-2.288,1.424l-104,96
  c-0.71,0.687-1.286,1.501-1.696,2.4c-0.119,0.26-0.221,0.527-0.304,0.8c-0.262,0.718-0.418,1.469-0.464,2.232
  c0,0.168-0.104,0.32-0.104,0.488V408c0,13.255,10.745,24,24,24c0,0,0,0,0,0h241.712c22.068,43.272,75.037,60.461,118.309,38.393
  s60.461-75.037,38.393-118.309C437.974,335.555,424.534,322.116,408.005,313.688z M128.005,26.272V88c0,4.418-3.582,8-8,8H52.469
  L128.005,26.272z M48.005,416c-4.418,0-8-3.582-8-8V112h80c13.255,0,24-10.745,24-24V16h240c4.418,0,8,3.582,8,8v283.344
  c-0.504-0.136-1.032-0.184-1.536-0.32c-3.036-0.802-6.112-1.44-9.216-1.912c-0.72-0.112-1.432-0.248-2.16-0.344
  c-3.677-0.486-7.38-0.742-11.088-0.768h-0.504h-0.16c-3.672,0.039-7.337,0.306-10.976,0.8c-1.024,0.128-2.04,0.296-3.064,0.464
  c-2.672,0.456-5.288,1.032-7.872,1.712c-0.944,0.248-1.904,0.352-2.848,0.624c-28.362,8.412-50.539,30.607-58.928,58.976
  c-0.264,0.92-0.368,1.864-0.608,2.784c-0.688,2.608-1.272,5.256-1.72,7.952c-0.168,1-0.328,1.984-0.456,2.984
  c-0.502,3.675-0.769,7.379-0.8,11.088v0.056v0.496c0.036,3.704,0.303,7.402,0.8,11.072c0.096,0.752,0.232,1.488,0.352,2.24
  c0.463,3.068,1.095,6.107,1.896,9.104c0.136,0.52,0.184,1.064,0.328,1.6L48.005,416z M368.005,464
  c-28.621-0.008-54.52-16.968-65.968-43.2c-0.92-2.08-1.704-4.2-2.4-6.344c-0.304-0.92-0.544-1.856-0.8-2.792
  c-0.344-1.208-0.688-2.4-0.968-3.656s-0.472-2.288-0.672-3.44s-0.36-2.136-0.496-3.2c-0.16-1.2-0.288-2.4-0.384-3.608
  s-0.128-2.216-0.168-3.328s-0.08-2.352-0.064-3.536s0.104-2.4,0.184-3.568c0.064-1.056,0.104-2.12,0.216-3.2
  c3.727-33.44,30.088-59.857,63.52-63.656c1.184-0.128,2.4-0.176,3.552-0.248c1.056-0.064,2.112-0.144,3.2-0.16
  c1.248,0,2.496,0,3.744,0.064c1.04,0,2.088,0.08,3.12,0.16c1.248,0.096,2.496,0.224,3.736,0.384
  c1.048,0.136,2.088,0.304,3.128,0.488c1.168,0.208,2.336,0.416,3.496,0.68s2.448,0.624,3.664,0.976
  c0.928,0.264,1.872,0.496,2.784,0.8c2.16,0.712,4.288,1.512,6.4,2.4c36.442,15.912,53.085,58.354,37.172,94.796
  C422.545,447.048,396.634,464.005,368.005,464L368.005,464z"/>
<g>
  
    <linearGradient id="SVGID_2_" gradientUnits="userSpaceOnUse" x1="-31.8697" y1="557.585" x2="-31.8697" y2="619.356" gradientTransform="matrix(8 0 0 -8 622.9626 4941)">
    <stop  offset="0" style="stop-color:#006DF0"/>
    <stop  offset="1" style="stop-color:#00E7F0"/>
  </linearGradient>
  <path style="fill:url(#SVGID_2_);" d="M416.005,384h-40v-40c0-4.418-3.582-8-8-8s-8,3.582-8,8v40h-40c-4.418,0-8,3.582-8,8
    s3.582,8,8,8h40v40c0,4.418,3.582,8,8,8s8-3.582,8-8v-40h40c4.418,0,8-3.582,8-8S420.424,384,416.005,384z"/>
  
    <linearGradient id="SVGID_3_" gradientUnits="userSpaceOnUse" x1="-50.8697" y1="557.585" x2="-50.8697" y2="619.356" gradientTransform="matrix(8 0 0 -8 622.9626 4941)">
    <stop  offset="0" style="stop-color:#006DF0"/>
    <stop  offset="1" style="stop-color:#00E7F0"/>
  </linearGradient>
  <path style="fill:url(#SVGID_3_);" d="M96.005,224h240c4.418,0,8-3.582,8-8s-3.582-8-8-8h-240c-4.418,0-8,3.582-8,8
    S91.587,224,96.005,224z"/>
  
    <linearGradient id="SVGID_4_" gradientUnits="userSpaceOnUse" x1="-50.8697" y1="557.585" x2="-50.8697" y2="619.356" gradientTransform="matrix(8 0 0 -8 622.9626 4941)">
    <stop  offset="0" style="stop-color:#006DF0"/>
    <stop  offset="1" style="stop-color:#00E7F0"/>
  </linearGradient>
  <path style="fill:url(#SVGID_4_);" d="M96.005,272h240c4.418,0,8-3.582,8-8s-3.582-8-8-8h-240c-4.418,0-8,3.582-8,8
    S91.587,272,96.005,272z"/>
  
    <linearGradient id="SVGID_5_" gradientUnits="userSpaceOnUse" x1="-53.3697" y1="557.585" x2="-53.3697" y2="619.356" gradientTransform="matrix(8 0 0 -8 622.9626 4941)">
    <stop  offset="0" style="stop-color:#006DF0"/>
    <stop  offset="1" style="stop-color:#00E7F0"/>
  </linearGradient>
  <path style="fill:url(#SVGID_5_);" d="M96.005,320h200c4.418,0,8-3.582,8-8s-3.582-8-8-8h-200c-4.418,0-8,3.582-8,8
    S91.587,320,96.005,320z"/>
  
    <linearGradient id="SVGID_6_" gradientUnits="userSpaceOnUse" x1="-55.3697" y1="557.585" x2="-55.3697" y2="619.356" gradientTransform="matrix(8 0 0 -8 622.9626 4941)">
    <stop  offset="0" style="stop-color:#006DF0"/>
    <stop  offset="1" style="stop-color:#00E7F0"/>
  </linearGradient>
  <path style="fill:url(#SVGID_6_);" d="M264.005,352h-168c-4.418,0-8,3.582-8,8s3.582,8,8,8h168c4.418,0,8-3.582,8-8
    S268.424,352,264.005,352z"/>
  
    <linearGradient id="SVGID_7_" gradientUnits="userSpaceOnUse" x1="-46.8697" y1="557.585" x2="-46.8697" y2="619.356" gradientTransform="matrix(8 0 0 -8 622.9626 4941)">
    <stop  offset="0" style="stop-color:#006DF0"/>
    <stop  offset="1" style="stop-color:#00E7F0"/>
  </linearGradient>
  <path style="fill:url(#SVGID_7_);" d="M160.005,176h176c4.418,0,8-3.582,8-8s-3.582-8-8-8h-176c-4.418,0-8,3.582-8,8
    S155.587,176,160.005,176z"/>
  
    <linearGradient id="SVGID_8_" gradientUnits="userSpaceOnUse" x1="-63.8697" y1="557.585" x2="-63.8697" y2="619.356" gradientTransform="matrix(8 0 0 -8 622.9626 4941)">
    <stop  offset="0" style="stop-color:#006DF0"/>
    <stop  offset="1" style="stop-color:#00E7F0"/>
  </linearGradient>
  <path style="fill:url(#SVGID_8_);" d="M96.005,176h32c4.418,0,8-3.582,8-8s-3.582-8-8-8h-32c-4.418,0-8,3.582-8,8
    S91.587,176,96.005,176z"/>
</g>
<g>
</g>
<g>
</g>
<g>
</g>
<g>
</g>
<g>
</g>
<g>
</g>
<g>
</g>
<g>
</g>
<g>
</g>
<g>
</g>
<g>
</g>
<g>
</g>
<g>
</g>
<g>
</g>
<g>
</g>
</svg>
