<?xml version="1.0" encoding="iso-8859-1"?>
<!-- Generator: Adobe Illustrator 19.0.0, SVG Export Plug-In . SVG Version: 6.00 Build 0)  -->
<svg version="1.1" id="Capa_1" xmlns="http://www.w3.org/2000/svg" xmlns:xlink="http://www.w3.org/1999/xlink" x="0px" y="0px"
   viewBox="0 0 480 480" style="enable-background:new 0 0 480 480;" xml:space="preserve">
<linearGradient id="SVGID_1_" gradientUnits="userSpaceOnUse" x1="-26.875" y1="557.315" x2="-26.875" y2="617.315" gradientTransform="matrix(8 0 0 -8 455 4941)">
  <stop  offset="0" style="stop-color:#006DF0"/>
  <stop  offset="1" style="stop-color:#00E7F0"/>
</linearGradient>
<path style="fill:url(#SVGID_1_);" d="M407.904,103.512c-0.046-0.709-0.186-1.408-0.416-2.08c-0.088-0.256-0.152-0.496-0.264-0.744
  c-0.389-0.87-0.931-1.664-1.6-2.344l-96-96c-0.674-0.672-1.466-1.214-2.336-1.6c-0.256-0.12-0.504-0.184-0.8-0.28
  c-0.657-0.221-1.34-0.355-2.032-0.4C304.344,0.088,304.184,0,304,0H96C82.745,0,72,10.745,72,24v432c0,13.255,10.745,24,24,24h288
  c13.255,0,24-10.745,24-24V104C408,103.832,407.912,103.68,407.904,103.512z M380.688,96H312V27.312L380.688,96z M384,464H96
  c-4.418,0-8-3.582-8-8V24c0-4.418,3.582-8,8-8h200v88c0,4.418,3.582,8,8,8h88v344C392,460.418,388.418,464,384,464z"/>
<g>
  
    <linearGradient id="SVGID_2_" gradientUnits="userSpaceOnUse" x1="-26.875" y1="557.315" x2="-26.875" y2="617.364" gradientTransform="matrix(8 0 0 -8 455 4941)">
    <stop  offset="0" style="stop-color:#006DF0"/>
    <stop  offset="1" style="stop-color:#00E7F0"/>
  </linearGradient>
  <path style="fill:url(#SVGID_2_);" d="M144,192h192v16H144V192z"/>
  
    <linearGradient id="SVGID_3_" gradientUnits="userSpaceOnUse" x1="-26.875" y1="557.315" x2="-26.875" y2="617.364" gradientTransform="matrix(8 0 0 -8 455 4941)">
    <stop  offset="0" style="stop-color:#006DF0"/>
    <stop  offset="1" style="stop-color:#00E7F0"/>
  </linearGradient>
  <path style="fill:url(#SVGID_3_);" d="M192,144h96v16h-96V144z"/>
  
    <linearGradient id="SVGID_4_" gradientUnits="userSpaceOnUse" x1="-26.875" y1="557.315" x2="-26.875" y2="617.364" gradientTransform="matrix(8 0 0 -8 455 4941)">
    <stop  offset="0" style="stop-color:#006DF0"/>
    <stop  offset="1" style="stop-color:#00E7F0"/>
  </linearGradient>
  <path style="fill:url(#SVGID_4_);" d="M136,432h208V240H136V432z M152,319.312c8.584,0.28,23.2,0.4,48,0.424V416h-48V319.312z
     M216,416v-96.264c26.704,0,62.968-0.12,112-0.264V416H216z M328,303.472c-35.048,0.096-77.032,0.184-112,0.208V256h112V303.472z
     M200,256v47.688c-21.368,0-38.696,0-48-0.08V256H200z"/>
</g>
<g>
</g>
<g>
</g>
<g>
</g>
<g>
</g>
<g>
</g>
<g>
</g>
<g>
</g>
<g>
</g>
<g>
</g>
<g>
</g>
<g>
</g>
<g>
</g>
<g>
</g>
<g>
</g>
<g>
</g>
</svg>
