<?xml version="1.0" encoding="iso-8859-1"?>
<!-- Generator: Adobe Illustrator 19.0.0, SVG Export Plug-In . SVG Version: 6.00 Build 0)  -->
<svg version="1.1" id="Capa_1" xmlns="http://www.w3.org/2000/svg" xmlns:xlink="http://www.w3.org/1999/xlink" x="0px" y="0px"
   viewBox="0 0 480.023 480.023" style="enable-background:new 0 0 480.023 480.023;" xml:space="preserve">
<linearGradient id="SVGID_1_" gradientUnits="userSpaceOnUse" x1="-47.8735" y1="557.833" x2="-47.8735" y2="619.089" gradientTransform="matrix(8 0 0 -8 623 4941)">
  <stop  offset="0" style="stop-color:#006DF0"/>
  <stop  offset="1" style="stop-color:#00E7F0"/>
</linearGradient>
<path style="fill:url(#SVGID_1_);" d="M408,313.696V24c0-13.255-10.745-24-24-24H136c-0.168,0-0.312,0.08-0.48,0.088
  c-0.647,0.044-1.286,0.165-1.904,0.36c-0.256,0.08-0.504,0.136-0.752,0.24c-0.842,0.346-1.618,0.833-2.296,1.44l-104,96
  c-0.712,0.686-1.287,1.5-1.696,2.4c-0.118,0.26-0.22,0.527-0.304,0.8c-0.262,0.715-0.418,1.464-0.464,2.224
  c0,0.168-0.104,0.32-0.104,0.488V408c0,13.255,10.745,24,24,24c0,0,0,0,0,0h241.696c22.062,43.275,75.029,60.472,118.304,38.409
  c43.275-22.062,60.472-75.029,38.409-118.304C437.979,335.57,424.535,322.126,408,313.696L408,313.696z M128,26.272V88
  c0,4.418-3.582,8-8,8H52.464L128,26.272z M48,416c-4.418,0-8-3.582-8-8V112h80c13.255,0,24-10.745,24-24V16h240c4.418,0,8,3.582,8,8
  v283.344c-0.528-0.152-1.088-0.2-1.6-0.336c-2.98-0.79-6-1.42-9.048-1.888c-0.76-0.112-1.512-0.256-2.28-0.352
  c-3.671-0.491-7.369-0.747-11.072-0.768h-0.504h-0.176c-3.672,0.039-7.337,0.306-10.976,0.8c-1.016,0.128-2.016,0.296-3.024,0.464
  c-2.667,0.459-5.301,1.032-7.904,1.72c-0.944,0.24-1.904,0.344-2.84,0.616c-28.362,8.412-50.539,30.607-58.928,58.976
  c-0.264,0.92-0.368,1.864-0.608,2.792c-0.688,2.6-1.272,5.248-1.72,7.944c-0.168,0.992-0.328,1.984-0.456,2.984
  c-0.526,3.692-0.814,7.415-0.864,11.144v0.064V392c0.036,3.706,0.303,7.407,0.8,11.08c0.096,0.744,0.232,1.48,0.344,2.216
  c0.469,3.078,1.105,6.127,1.904,9.136c0.136,0.512,0.184,1.056,0.328,1.6L48,416z M368,464c-28.625,0.004-54.53-16.96-65.968-43.2
  c-0.92-2.08-1.712-4.2-2.4-6.344c-0.296-0.92-0.536-1.856-0.8-2.784c-0.344-1.216-0.688-2.4-0.968-3.656s-0.472-2.304-0.672-3.456
  s-0.36-2.128-0.496-3.2c-0.16-1.205-0.288-2.413-0.384-3.624c-0.08-1.096-0.128-2.208-0.168-3.312s-0.08-2.4-0.064-3.544
  s0.104-2.4,0.184-3.576c0.064-1.056,0.104-2.112,0.216-3.2c3.735-33.432,30.094-59.838,63.52-63.632
  c1.152-0.128,2.312-0.176,3.464-0.24s2.176-0.152,3.272-0.168c1.24,0,2.48,0,3.72,0.064c1.048,0,2.104,0.08,3.144,0.16
  c1.248,0.096,2.488,0.224,3.728,0.384c1.048,0.144,2.088,0.312,3.128,0.488c1.168,0.208,2.336,0.416,3.488,0.68
  s2.504,0.64,3.752,0.992c0.888,0.256,1.792,0.488,2.672,0.8c2.168,0.72,4.312,1.512,6.4,2.448
  c36.407,15.993,52.956,58.471,36.963,94.877C422.27,447.049,396.498,463.925,368,464z"/>
<g>
  
    <linearGradient id="SVGID_2_" gradientUnits="userSpaceOnUse" x1="-31.875" y1="557.833" x2="-31.875" y2="619.089" gradientTransform="matrix(8 0 0 -8 623 4941)">
    <stop  offset="0" style="stop-color:#006DF0"/>
    <stop  offset="1" style="stop-color:#00E7F0"/>
  </linearGradient>
  <path style="fill:url(#SVGID_2_);" d="M416,384h-40v-40c0-4.418-3.582-8-8-8s-8,3.582-8,8v40h-40c-4.418,0-8,3.582-8,8s3.582,8,8,8
    h40v40c0,4.418,3.582,8,8,8s8-3.582,8-8v-40h40c4.418,0,8-3.582,8-8S420.418,384,416,384z"/>
  
    <linearGradient id="SVGID_3_" gradientUnits="userSpaceOnUse" x1="-45.875" y1="557.833" x2="-45.875" y2="619.089" gradientTransform="matrix(8 0 0 -8 623 4941)">
    <stop  offset="0" style="stop-color:#006DF0"/>
    <stop  offset="1" style="stop-color:#00E7F0"/>
  </linearGradient>
  <path style="fill:url(#SVGID_3_);" d="M176,224h160c4.418,0,8-3.582,8-8s-3.582-8-8-8H176c-4.418,0-8,3.582-8,8
    S171.582,224,176,224z"/>
  
    <linearGradient id="SVGID_4_" gradientUnits="userSpaceOnUse" x1="-45.875" y1="557.833" x2="-45.875" y2="619.089" gradientTransform="matrix(8 0 0 -8 623 4941)">
    <stop  offset="0" style="stop-color:#006DF0"/>
    <stop  offset="1" style="stop-color:#00E7F0"/>
  </linearGradient>
  <path style="fill:url(#SVGID_4_);" d="M176,272h160c4.418,0,8-3.582,8-8s-3.582-8-8-8H176c-4.418,0-8,3.582-8,8
    S171.582,272,176,272z"/>
  
    <linearGradient id="SVGID_5_" gradientUnits="userSpaceOnUse" x1="-48.375" y1="557.833" x2="-48.375" y2="619.089" gradientTransform="matrix(8 0 0 -8 623 4941)">
    <stop  offset="0" style="stop-color:#006DF0"/>
    <stop  offset="1" style="stop-color:#00E7F0"/>
  </linearGradient>
  <path style="fill:url(#SVGID_5_);" d="M304,312c0-4.418-3.582-8-8-8H176c-4.418,0-8,3.582-8,8s3.582,8,8,8h120
    C300.418,320,304,316.418,304,312z"/>
  
    <linearGradient id="SVGID_6_" gradientUnits="userSpaceOnUse" x1="-45.875" y1="557.833" x2="-45.875" y2="619.089" gradientTransform="matrix(8 0 0 -8 623 4941)">
    <stop  offset="0" style="stop-color:#006DF0"/>
    <stop  offset="1" style="stop-color:#00E7F0"/>
  </linearGradient>
  <path style="fill:url(#SVGID_6_);" d="M176,176h160c4.418,0,8-3.582,8-8s-3.582-8-8-8H176c-4.418,0-8,3.582-8,8
    S171.582,176,176,176z"/>
  
    <linearGradient id="SVGID_7_" gradientUnits="userSpaceOnUse" x1="-63.8268" y1="557.833" x2="-63.8268" y2="619.089" gradientTransform="matrix(8 0 0 -8 623 4941)">
    <stop  offset="0" style="stop-color:#006DF0"/>
    <stop  offset="1" style="stop-color:#00E7F0"/>
  </linearGradient>
  <path style="fill:url(#SVGID_7_);" d="M132.28,128.408L104,156.688l-11.312-11.312c-3.069-3.178-8.134-3.266-11.312-0.197
    c-3.178,3.069-3.266,8.134-0.197,11.312c0.064,0.067,0.13,0.132,0.197,0.197l16.968,16.968c3.124,3.123,8.188,3.123,11.312,0
    l33.936-33.936c3.069-3.178,2.981-8.243-0.197-11.312C140.295,125.414,135.38,125.414,132.28,128.408L132.28,128.408z"/>
  
    <linearGradient id="SVGID_8_" gradientUnits="userSpaceOnUse" x1="-63.8268" y1="557.833" x2="-63.8268" y2="619.089" gradientTransform="matrix(8 0 0 -8 623 4941)">
    <stop  offset="0" style="stop-color:#006DF0"/>
    <stop  offset="1" style="stop-color:#00E7F0"/>
  </linearGradient>
  <path style="fill:url(#SVGID_8_);" d="M132.28,176.408L104,204.688l-11.312-11.312c-3.069-3.178-8.134-3.266-11.312-0.197
    c-3.178,3.069-3.266,8.134-0.197,11.312c0.064,0.067,0.13,0.132,0.197,0.197l16.968,16.968c3.124,3.123,8.188,3.123,11.312,0
    l33.936-33.936c3.069-3.178,2.981-8.243-0.197-11.312C140.295,173.414,135.38,173.414,132.28,176.408L132.28,176.408z"/>
  
    <linearGradient id="SVGID_9_" gradientUnits="userSpaceOnUse" x1="-63.8145" y1="557.833" x2="-63.8145" y2="619.089" gradientTransform="matrix(8 0 0 -8 623 4941)">
    <stop  offset="0" style="stop-color:#006DF0"/>
    <stop  offset="1" style="stop-color:#00E7F0"/>
  </linearGradient>
  <path style="fill:url(#SVGID_9_);" d="M132.28,224.408L104,252.688l-11.312-11.312c-3.178-3.069-8.243-2.982-11.312,0.196
    c-2.994,3.1-2.994,8.015,0,11.116l16.968,16.968c3.124,3.123,8.188,3.123,11.312,0l33.936-33.936
    c3.069-3.178,2.981-8.243-0.197-11.312C140.295,221.414,135.38,221.414,132.28,224.408L132.28,224.408z"/>
  
    <linearGradient id="SVGID_10_" gradientUnits="userSpaceOnUse" x1="-63.8145" y1="557.833" x2="-63.8145" y2="619.089" gradientTransform="matrix(8 0 0 -8 623 4941)">
    <stop  offset="0" style="stop-color:#006DF0"/>
    <stop  offset="1" style="stop-color:#00E7F0"/>
  </linearGradient>
  <path style="fill:url(#SVGID_10_);" d="M132.28,272.408L104,300.688l-11.312-11.312c-3.178-3.069-8.243-2.982-11.312,0.196
    c-2.994,3.1-2.994,8.015,0,11.116l16.968,16.968c3.124,3.123,8.188,3.123,11.312,0l33.936-33.936
    c3.07-3.178,2.982-8.242-0.196-11.312C140.295,269.414,135.38,269.414,132.28,272.408L132.28,272.408z"/>
</g>
<g>
</g>
<g>
</g>
<g>
</g>
<g>
</g>
<g>
</g>
<g>
</g>
<g>
</g>
<g>
</g>
<g>
</g>
<g>
</g>
<g>
</g>
<g>
</g>
<g>
</g>
<g>
</g>
<g>
</g>
</svg>
