<?xml version="1.0" encoding="iso-8859-1"?>
<!-- Generator: Adobe Illustrator 19.0.0, SVG Export Plug-In . SVG Version: 6.00 Build 0)  -->
<svg version="1.1" id="Layer_1" xmlns="http://www.w3.org/2000/svg" xmlns:xlink="http://www.w3.org/1999/xlink" x="0px" y="0px"
   viewBox="0 0 512 512" style="enable-background:new 0 0 512 512;" xml:space="preserve">
<g>
  <g>
    <g>
      <path d="M256.01,310.801c1.687,0,3.398-0.429,4.967-1.329l50.178-28.799c4.79-2.749,6.444-8.86,3.695-13.65
        c-2.749-4.788-8.856-6.444-13.65-3.695l-50.178,28.799c-4.79,2.749-6.444,8.86-3.695,13.65
        C249.176,308.997,252.544,310.801,256.01,310.801z"/>
      <path d="M103.84,225l112.611,64.63c1.57,0.901,3.28,1.329,4.968,1.329c3.465,0,6.835-1.804,8.682-5.024
        c2.749-4.79,1.095-10.901-3.695-13.65l-112.611-64.63c-4.791-2.752-10.902-1.094-13.65,3.695
        C97.396,216.14,99.05,222.251,103.84,225z"/>
      <path d="M506.978,284.616L457.117,256l49.861-28.616c3.106-1.782,5.022-5.091,5.022-8.673c0-3.582-1.916-6.891-5.022-8.673
        l-246-141.185c-3.082-1.77-6.873-1.77-9.955,0l-246,141.185C1.916,211.82,0,215.129,0,218.711c0,3.582,1.916,6.891,5.022,8.673
        L54.883,256L5.022,284.616C1.916,286.398,0,289.707,0,293.289c0,3.582,1.916,6.89,5.022,8.673l246,141.185
        c1.541,0.885,3.26,1.327,4.978,1.327s3.437-0.442,4.978-1.327l246-141.185c3.106-1.783,5.022-5.091,5.022-8.673
        C512,289.707,510.084,286.398,506.978,284.616z M30.09,218.711L256,89.057l225.91,129.654l-48.661,27.928
        c-0.448,0.177-0.888,0.379-1.313,0.623L256,348.235L80.063,247.262c-0.425-0.244-0.865-0.446-1.313-0.623L30.09,218.711z
         M256,422.943L30.09,293.289l44.883-25.759l176.05,101.039c1.541,0.885,3.26,1.327,4.978,1.327c1.718,0,3.437-0.442,4.978-1.327
        l176.05-101.039l44.883,25.759L256,422.943z"/>
    </g>
  </g>
</g>
<g>
</g>
<g>
</g>
<g>
</g>
<g>
</g>
<g>
</g>
<g>
</g>
<g>
</g>
<g>
</g>
<g>
</g>
<g>
</g>
<g>
</g>
<g>
</g>
<g>
</g>
<g>
</g>
<g>
</g>
</svg>
