<?xml version="1.0" encoding="iso-8859-1"?>
<!-- Generator: Adobe Illustrator 19.0.0, SVG Export Plug-In . SVG Version: 6.00 Build 0)  -->
<svg version="1.1" id="Layer_1" xmlns="http://www.w3.org/2000/svg" xmlns:xlink="http://www.w3.org/1999/xlink" x="0px" y="0px"
   viewBox="0 0 512.004 512.004" style="enable-background:new 0 0 512.004 512.004;" xml:space="preserve">
<path style="fill:#A8A5A4;" d="M485.835,272.797l-3.949,1.932l-85.784,42.01l-137.12,66.544c-4.478,2.075-9.637,2.075-14.115,0
  l-30.751-14.956l-106.369-51.672l-85.784-42.01l-3.949-1.848c-8.419-3.907-12.074-13.905-8.158-22.316
  c1.739-3.739,4.789-6.713,8.578-8.352l62.259-28.147l39.069-17.728l94.354,46.043l27.811,13.695l2.941,1.428
  c4.478,2.075,9.637,2.075,14.115,0l2.941-1.428l85.616-42.01l36.549-17.728l101.328,45.959c8.494,3.73,12.368,13.645,8.637,22.139
  C492.422,268.066,489.498,271.066,485.835,272.797z"/>
<g>
  <path style="fill:#BDBDBD;" d="M481.886,275.065l-85.784,42.01l-137.12,66.208c-4.478,2.075-9.637,2.075-14.115,0l-30.751-14.956
    l-106.369-51.672l-85.784-42.01l58.814-26.634l38.985-17.224l94.354,45.707l27.811,13.107l2.941,1.428
    c4.478,2.075,9.637,2.075,14.115,0l2.941-1.428l85.616-42.01l36.549-16.804L481.886,275.065z"/>
  <path style="fill:#BDBDBD;" d="M347.538,213.983l-85.616,42.01l-2.941,1.428c-4.478,2.075-9.637,2.075-14.115,0l-2.941-1.428
    l-27.811-13.695l94.354-45.791L347.538,213.983z"/>
</g>
<path style="fill:#F4F4F4;" d="M502.639,146.767l-101.748,49.74l-122.165,59.486l-2.941,1.428c-4.478,2.075-9.637,2.075-14.115,0
  l-2.941-1.428l-27.811-13.695l-94.354-45.791l-101.748-49.74c-8.419-3.907-12.074-13.905-8.158-22.316
  c1.739-3.739,4.789-6.713,8.578-8.352l195.682-88.389l31.171-14.115c4.251-1.764,9.024-1.764,13.275,0l226.854,102.84
  c8.427,3.882,12.124,13.855,8.242,22.29C508.848,142.221,506.092,145.061,502.639,146.767z"/>
<path style="fill:#FFFFFF;" d="M410.217,146.767l-101.748,49.74l-94.354,45.791l-94.354-45.791l-101.748-49.74
  c-8.419-3.907-12.074-13.905-8.158-22.316c1.739-3.739,4.789-6.713,8.578-8.352l195.682-88.389l195.682,88.725
  c8.427,3.882,12.124,13.855,8.242,22.29C416.426,142.221,413.67,145.061,410.217,146.767z"/>
<path style="fill:#555656;" d="M485.835,387.82l-3.361,1.596L258.981,497.97c-4.478,2.075-9.637,2.075-14.115,0L21.373,389.416
  l-3.361-1.596c-8.511-3.697-12.418-13.594-8.721-22.106c1.756-4.05,5.041-7.251,9.141-8.898l89.313-40.498l137.12,66.628
  c4.478,2.075,9.637,2.075,14.115,0l137.12-66.628l89.313,40.498c8.612,3.462,12.779,13.25,9.318,21.862
  C493.086,382.778,489.885,386.064,485.835,387.82z"/>
<path style="fill:#717272;" d="M482.474,389.416L258.981,497.97c-4.478,2.075-9.637,2.075-14.115,0L21.373,389.416l86.372-39.153
  l137.12,66.628c4.478,2.075,9.637,2.075,14.115,0l137.12-66.628L482.474,389.416z"/>
<path d="M251.924,267.251c-3.655-0.008-7.268-0.807-10.587-2.353L14.484,154.749c-12.595-5.923-18.005-20.938-12.082-33.541
  c2.621-5.571,7.184-9.99,12.838-12.418L241.841,5.95c6.369-2.663,13.544-2.663,19.913,0l226.854,102.924
  c12.746,5.604,18.526,20.484,12.922,33.221c-2.453,5.571-6.831,10.057-12.334,12.653L262.678,264.395
  C259.351,266.134,255.679,267.117,251.924,267.251z M251.924,20.737c-1.21-0.008-2.411,0.218-3.529,0.672L21.877,124.081
  c-4.243,1.874-6.167,6.831-4.302,11.074c0.849,1.916,2.378,3.453,4.302,4.302l226.854,110.234c2.193,0.983,4.697,0.983,6.89,0
  l226.854-110.066l0,0c3.033-1.403,4.949-4.47,4.873-7.814c-0.05-3.294-2.025-6.243-5.041-7.562L255.453,21.325
  C254.335,20.88,253.125,20.678,251.924,20.737z"/>
<path d="M251.924,393.281c-3.655-0.008-7.268-0.807-10.587-2.353L14.484,280.778c-12.595-5.923-18.005-20.938-12.082-33.541
  c2.621-5.571,7.184-9.99,12.838-12.418l100.824-45.875c2.26-1.059,4.882-1.059,7.142,0l125.358,60.746
  c2.193,0.983,4.697,0.983,6.89,0l124.937-60.914c2.26-1.059,4.882-1.059,7.142,0L488.86,234.82
  c12.746,5.604,18.526,20.484,12.922,33.221c-2.453,5.571-6.831,10.057-12.334,12.653l-226.77,109.73
  C259.351,392.163,255.679,393.147,251.924,393.281z M119.677,205.581l-97.799,44.531c-4.243,1.874-6.167,6.831-4.302,11.074
  c0.849,1.916,2.378,3.453,4.302,4.302l226.854,110.234c2.193,0.983,4.697,0.983,6.89,0l226.854-110.15l0,0
  c3.033-1.403,4.949-4.47,4.873-7.814c-0.05-3.294-2.025-6.243-5.041-7.562l-98.135-44.615l-121.493,58.814
  c-6.764,3.159-14.577,3.159-21.341,0L119.677,205.581z"/>
<path d="M251.924,508.052c-3.655-0.008-7.268-0.807-10.587-2.353L14.484,395.549c-12.595-5.923-18.005-20.938-12.082-33.541
  c2.621-5.57,7.184-9.99,12.838-12.418l89.145-40.414c2.26-1.059,4.882-1.059,7.142,0l137.036,66.544c2.193,0.983,4.697,0.983,6.89,0
  l137.036-66.628c2.26-1.059,4.882-1.059,7.142,0l89.229,40.414c12.746,5.604,18.526,20.484,12.922,33.221
  c-2.453,5.571-6.831,10.057-12.334,12.653l-226.854,110.15C259.267,507.145,255.621,508.01,251.924,508.052z M107.662,325.897
  l-85.784,39.321c-4.243,1.874-6.167,6.831-4.302,11.074c0.849,1.916,2.378,3.453,4.302,4.302l226.854,110.234
  c2.193,0.983,4.697,0.983,6.89,0l226.854-110.066l0,0c3.033-1.403,4.949-4.47,4.873-7.814c-0.05-3.294-2.025-6.243-5.041-7.562
  l-86.12-39.489l-133.507,64.527c-6.764,3.159-14.577,3.159-21.341,0L107.662,325.897z"/>
<g>
</g>
<g>
</g>
<g>
</g>
<g>
</g>
<g>
</g>
<g>
</g>
<g>
</g>
<g>
</g>
<g>
</g>
<g>
</g>
<g>
</g>
<g>
</g>
<g>
</g>
<g>
</g>
<g>
</g>
</svg>
