<?xml version="1.0" encoding="iso-8859-1"?>
<!-- Generator: Adobe Illustrator 19.0.0, SVG Export Plug-In . SVG Version: 6.00 Build 0)  -->
<svg version="1.1" id="Layer_1" xmlns="http://www.w3.org/2000/svg" xmlns:xlink="http://www.w3.org/1999/xlink" x="0px" y="0px"
   viewBox="0 0 512 512" style="enable-background:new 0 0 512 512;" xml:space="preserve">
<path style="fill:#D3D7DF;" d="M256,115.2c-146.389,0-237.116,128.043-240.905,133.495L10.01,256l5.086,7.305
  C18.884,268.757,109.611,396.8,256,396.8s237.116-128.043,240.905-133.495L501.99,256l-5.086-7.305
  C493.116,243.243,402.389,115.2,256,115.2z"/>
<circle style="fill:#538489;" cx="256" cy="256" r="89.6"/>
<g>
  <path style="fill:#573A32;" d="M256,409.6c153.003,0,247.467-133.308,251.418-138.982c6.11-8.789,6.11-20.446,0-29.235
    C503.467,235.708,409.003,102.4,256,102.4S8.533,235.708,4.582,241.382c-6.11,8.789-6.11,20.446,0,29.235
    C8.533,276.292,102.997,409.6,256,409.6z M256,128c141.38,0,230.4,128,230.4,128S397.38,384,256,384S25.6,256,25.6,256
    S114.62,128,256,128z"/>
  <path style="fill:#573A32;" d="M256,358.4c56.55,0,102.4-45.841,102.4-102.4S312.55,153.6,256,153.6S153.6,199.441,153.6,256
    S199.45,358.4,256,358.4z M256,179.2c42.351,0,76.8,34.449,76.8,76.8s-34.449,76.8-76.8,76.8s-76.8-34.449-76.8-76.8
    S213.649,179.2,256,179.2z"/>
</g>
<g>
</g>
<g>
</g>
<g>
</g>
<g>
</g>
<g>
</g>
<g>
</g>
<g>
</g>
<g>
</g>
<g>
</g>
<g>
</g>
<g>
</g>
<g>
</g>
<g>
</g>
<g>
</g>
<g>
</g>
</svg>
