<?xml version="1.0" encoding="iso-8859-1"?>
<!-- Generator: Adobe Illustrator 19.0.0, SVG Export Plug-In . SVG Version: 6.00 Build 0)  -->
<svg version="1.1" id="Capa_1" xmlns="http://www.w3.org/2000/svg" xmlns:xlink="http://www.w3.org/1999/xlink" x="0px" y="0px"
   viewBox="0 0 395.2 395.2" style="enable-background:new 0 0 395.2 395.2;" xml:space="preserve">
<path style="fill:#54B5EA;" d="M145.6,273.6c-42.4-15.2-80-39.2-112-70.4l-6.4-5.6l5.6-5.6c32-32,69.6-56,112-70.4l8,13.6
  c-34.4,35.2-34.4,91.2,0,126.4L145.6,273.6z"/>
<path style="fill:#C9D1E7;" d="M199.2,280c-39.2,0-72-36.8-72-82.4s32-82.4,72-82.4s72,36.8,72,82.4S238.4,280,199.2,280z
   M199.2,174.4c-12.8,0-23.2,10.4-23.2,23.2c0,12.8,10.4,23.2,23.2,23.2c12.8,0,23.2-10.4,23.2-23.2l0,0
  C222.4,184.8,212,174.4,199.2,174.4z"/>
<g>
  <circle style="fill:#54B5EA;" cx="199.2" cy="197.6" r="23.2"/>
  <path style="fill:#54B5EA;" d="M244.8,260.8c34.4-35.2,34.4-91.2,0-126.4l8-13.6c42.4,15.2,80,39.2,112,70.4l5.6,5.6l-5.6,5.6
    c-32,32-69.6,56-112,70.4L244.8,260.8z"/>
</g>
<g>
  <path style="fill:#3F5A6C;" d="M8,135.2c4.8,0,8-3.2,8-8V53.6h73.6c4.8,0,8-3.2,8-8s-3.2-8-8-8H8c-4.8,0-8,3.2-8,8v81.6
    C0,131.2,4,135.2,8,135.2z"/>
  <path style="fill:#3F5A6C;" d="M387.2,37.6h-81.6c-4.8,0-8,3.2-8,8s3.2,8,8,8h73.6v73.6c0,4.8,3.2,8,8,8s8-3.2,8-8V45.6
    C395.2,40.8,391.2,37.6,387.2,37.6z"/>
  <path style="fill:#3F5A6C;" d="M89.6,341.6H16V268c0-4.8-3.2-8-8-8s-8,3.2-8,8v81.6c0,4.8,3.2,8,8,8h81.6c4.8,0,8-3.2,8-8
    S94.4,341.6,89.6,341.6z"/>
  <path style="fill:#3F5A6C;" d="M387.2,260c-4.8,0-8,3.2-8,8v73.6h-73.6c-4.8,0-8,3.2-8,8s3.2,8,8,8h81.6c4.8,0,8-3.2,8-8V268
    C395.2,264,391.2,260,387.2,260z"/>
  <path style="fill:#3F5A6C;" d="M376,203.2c2.4-3.2,2.4-8,0-10.4c-3.2-4-80-88-177.6-88S24.8,188.8,21.6,192c-2.4,3.2-2.4,8,0,10.4
    c3.2,4,80,88,177.6,88S372.8,206.4,376,203.2z M39.2,197.6c14.4-14.4,56-52,108.8-68.8c-37.6,38.4-37.6,99.2,0,137.6
    C94.4,249.6,52.8,212,39.2,197.6z M199.2,272c-35.2,0-64-33.6-64-74.4s28.8-74.4,64-74.4s64,33.6,64,74.4S234.4,272,199.2,272
    L199.2,272z M250.4,266.4c37.6-38.4,37.6-99.2,0-137.6c52.8,16.8,94.4,55.2,108.8,68.8C344.8,212,303.2,249.6,250.4,266.4
    L250.4,266.4z"/>
  <path style="fill:#3F5A6C;" d="M199.2,166.4c-17.6,0-31.2,14.4-31.2,31.2c0,17.6,14.4,31.2,31.2,31.2s31.2-14.4,31.2-31.2l0,0
    C230.4,180,216.8,166.4,199.2,166.4z M199.2,212.8c-8.8,0-15.2-7.2-15.2-15.2c0-8.8,7.2-15.2,15.2-15.2c8.8,0,15.2,7.2,15.2,15.2
    l0,0C214.4,206.4,208,212.8,199.2,212.8z"/>
</g>
<g>
</g>
<g>
</g>
<g>
</g>
<g>
</g>
<g>
</g>
<g>
</g>
<g>
</g>
<g>
</g>
<g>
</g>
<g>
</g>
<g>
</g>
<g>
</g>
<g>
</g>
<g>
</g>
<g>
</g>
</svg>
