<?xml version="1.0" encoding="iso-8859-1"?>
<!-- Generator: Adobe Illustrator 19.0.0, SVG Export Plug-In . SVG Version: 6.00 Build 0)  -->
<svg version="1.1" id="Capa_1" xmlns="http://www.w3.org/2000/svg" xmlns:xlink="http://www.w3.org/1999/xlink" x="0px" y="0px"
   viewBox="0 0 431.543 431.543" style="enable-background:new 0 0 431.543 431.543;" xml:space="preserve">
<polygon style="fill:#00BBD3;" points="415.869,215.706 349.518,252.278 215.771,324.898 82.024,252.278 15.673,215.706 
  82.547,179.135 82.547,179.135 215.771,251.755 348.996,179.135 348.996,179.135 "/>
<g>
  <polygon style="fill:#4DCFE0;" points="415.869,288.849 215.771,398.041 15.673,288.849 82.024,252.278 82.024,252.278 
    215.771,324.898 349.518,252.278 349.518,252.278   "/>
  <polygon style="fill:#4DCFE0;" points="415.869,142.563 348.996,179.135 215.771,251.755 82.547,179.135 15.673,142.563 
    215.771,33.371   "/>
</g>
<path style="fill:#3A2C51;" d="M431.543,215.706c0-5.747-3.135-10.971-8.359-13.584l-41.796-22.988l41.796-22.988
  c5.224-2.612,8.359-7.837,8.359-13.584s-3.135-10.971-8.359-13.584L223.086,19.788c-4.702-2.612-10.449-2.612-15.151,0L8.359,128.98
  C3.135,131.592,0,136.816,0,142.563s3.135,10.971,8.359,13.584l41.796,22.988L8.359,202.122C3.135,204.735,0,209.959,0,215.706
  c0,5.747,3.135,10.971,8.359,13.584l41.273,22.988L8.359,275.265C3.135,277.878,0,283.102,0,288.849
  c0,5.747,3.135,10.971,8.359,13.584l200.098,109.192c2.09,1.045,4.702,2.09,7.314,2.09s5.224-0.522,7.314-2.09l200.098-109.192
  c5.224-2.612,8.359-7.837,8.359-13.584c0-5.747-3.135-10.971-8.359-13.584l-41.273-22.988l41.273-22.988
  C428.408,226.678,431.543,221.453,431.543,215.706z M215.771,51.135l167.184,91.429l-167.184,91.429l-125.91-68.441l-41.273-22.988
  L215.771,51.135z M215.771,380.278L48.065,288.849l33.959-18.808l126.433,68.441c2.09,1.045,4.702,2.09,7.314,2.09
  s5.224-0.522,7.314-2.09l126.433-68.441l33.959,18.808L215.771,380.278z M342.204,238.694l-126.433,68.441L89.339,238.694
  l-41.273-22.988l34.482-18.808l125.91,68.441c2.09,1.045,4.702,2.09,7.314,2.09s5.224-0.522,7.314-2.09l125.388-68.441
  l34.482,18.808L342.204,238.694z"/>
<g>
</g>
<g>
</g>
<g>
</g>
<g>
</g>
<g>
</g>
<g>
</g>
<g>
</g>
<g>
</g>
<g>
</g>
<g>
</g>
<g>
</g>
<g>
</g>
<g>
</g>
<g>
</g>
<g>
</g>
</svg>
