<?xml version="1.0" encoding="iso-8859-1"?>
<!-- Generator: Adobe Illustrator 19.0.0, SVG Export Plug-In . SVG Version: 6.00 Build 0)  -->
<svg version="1.1" id="Capa_1" xmlns="http://www.w3.org/2000/svg" xmlns:xlink="http://www.w3.org/1999/xlink" x="0px" y="0px"
   viewBox="0 0 512 512" style="enable-background:new 0 0 512 512;" xml:space="preserve">
<path style="fill:#1E81CE;" d="M466.83,395.474l-199.976,114.35c-5.091,2.9-11.331,2.9-16.412,0L50.466,395.474
  c-11.07-6.323-11.112-22.275-0.063-28.65l18.874-10.892l181.102-104.574c5.112-2.953,11.414-2.953,16.526,0l181.113,104.574
  l18.874,10.892C477.931,373.199,477.9,389.152,466.83,395.474z"/>
<path style="fill:#1A6FB0;" d="M448.019,355.932L266.854,459.514c-5.091,2.911-11.331,2.911-16.412,0L69.277,355.932
  l181.102-104.574c5.112-2.953,11.414-2.953,16.526,0L448.019,355.932z"/>
<path style="fill:#5AAAE7;" d="M466.83,311.966l-199.976,114.35c-5.091,2.9-11.331,2.9-16.412,0L50.466,311.966
  c-11.07-6.323-11.112-22.275-0.063-28.66l18.874-10.892l181.102-104.563c5.112-2.953,11.414-2.953,16.526,0l181.113,104.563
  l18.874,10.892C477.931,289.69,477.9,305.643,466.83,311.966z"/>
<path style="fill:#3D9AE2;" d="M448.019,272.413L266.854,376.006c-5.091,2.9-11.331,2.9-16.412,0L69.277,272.413l181.102-104.563
  c5.112-2.953,11.414-2.953,16.526,0L448.019,272.413z"/>
<path style="fill:#78B9EB;" d="M466.83,228.457l-199.976,114.35c-5.091,2.9-11.331,2.9-16.412,0L50.466,228.457
  c-11.07-6.333-11.112-22.286-0.063-28.66l15.629-9.025L250.379,84.341c5.112-2.953,11.414-2.953,16.526,0l166.287,95.997
  l33.7,19.458C477.931,206.171,477.9,222.124,466.83,228.457z"/>
<path style="fill:#5AAAE7;" d="M433.193,180.338v6.281c0,11.174-5.989,21.493-15.692,27.043L297.58,282.231l-30.205,17.267
  c-3.474,1.982-7.731,1.982-11.195,0L66.032,190.772L250.379,84.341c5.112-2.953,11.414-2.953,16.526,0L433.193,180.338z"/>
<path style="fill:#B3D8F4;" d="M430.063,97.216v70.957L294.45,245.714l-30.205,17.267c-3.474,1.982-7.731,1.982-11.195,0
  L42.526,142.611c-7.554-4.319-7.575-15.212-0.042-19.552L253.009,1.51c3.485-2.014,7.783-2.014,11.278,0l27.44,15.838
  L430.063,97.216z"/>
<path style="fill:#D1E7F8;" d="M430.062,97.22v70.951l-59.186-28.383c-5.826-2.794-5.842-11.083-0.026-13.898L430.062,97.22z"/>
<g>
</g>
<g>
</g>
<g>
</g>
<g>
</g>
<g>
</g>
<g>
</g>
<g>
</g>
<g>
</g>
<g>
</g>
<g>
</g>
<g>
</g>
<g>
</g>
<g>
</g>
<g>
</g>
<g>
</g>
</svg>
