<?xml version="1.0" encoding="utf-8"?>
<!-- Generator: Adobe Illustrator 19.0.0, SVG Export Plug-In . SVG Version: 6.00 Build 0)  -->
<svg xmlns="http://www.w3.org/2000/svg" xmlns:xlink="http://www.w3.org/1999/xlink" version="1.1" id="Layer_1" x="0px" y="0px" viewBox="0 2 98 98" style="enable-background:new 0 2 98 98;" xml:space="preserve" width="512" height="512">
<style type="text/css">
  .st0{fill:url(#SVGID_1_);}
  .st1{fill:url(#SVGID_2_);}
  .st2{fill:url(#SVGID_3_);}
</style>
<g>
  
    <linearGradient id="SVGID_1_" gradientUnits="userSpaceOnUse" x1="49" y1="91" x2="49" y2="14.044" gradientTransform="matrix(1 0 0 -1 0 104)">
    <stop offset="0" style="stop-color:#00EFD1"/>
    <stop offset="1" style="stop-color:#00ACEA"/>
  </linearGradient>
  <path class="st0" d="M12.6,40.8l35.2,15C48.2,56,48.6,56,49,56s0.8-0.1,1.2-0.2l35.2-15c1.1-0.5,1.8-1.6,1.8-2.8s-0.7-2.3-1.8-2.8   L50.2,20.1c-0.8-0.3-1.6-0.3-2.4,0L12.6,35.2c-1.1,0.5-1.8,1.6-1.8,2.8S11.5,40.3,12.6,40.8z M49,26.2L76.6,38L49,49.7L21.4,38   L49,26.2z"/>
  
    <linearGradient id="SVGID_2_" gradientUnits="userSpaceOnUse" x1="49.079" y1="91" x2="49.079" y2="14.044" gradientTransform="matrix(1 0 0 -1 0 104)">
    <stop offset="0" style="stop-color:#00EFD1"/>
    <stop offset="1" style="stop-color:#00ACEA"/>
  </linearGradient>
  <path class="st1" d="M83,65.2L49,79.8L15,65.2c-1.5-0.7-3.3,0.1-3.9,1.6c-0.7,1.5,0.1,3.3,1.6,3.9l35.2,15.1   c0.4,0.2,0.8,0.2,1.2,0.2s0.8-0.1,1.2-0.2l35.2-15.1c1.5-0.7,2.2-2.4,1.6-3.9C86.3,65.3,84.5,64.6,83,65.2z"/>
  
    <linearGradient id="SVGID_3_" gradientUnits="userSpaceOnUse" x1="49.0208" y1="91" x2="49.0208" y2="14.044" gradientTransform="matrix(1 0 0 -1 0 104)">
    <stop offset="0" style="stop-color:#00EFD1"/>
    <stop offset="1" style="stop-color:#00ACEA"/>
  </linearGradient>
  <path class="st2" d="M12.6,55.8l35.2,15C48.2,71,48.6,71,49,71s0.8-0.1,1.2-0.2l35.2-15c1.5-0.6,2.2-2.4,1.6-3.9   c-0.7-1.5-2.4-2.2-3.9-1.6L49,64.7L15,50.2c-1.5-0.7-3.3,0.1-3.9,1.6C10.4,53.3,11.1,55.1,12.6,55.8z"/>
</g>
</svg>
