<?xml version="1.0" encoding="iso-8859-1"?>
<!-- Generator: Adobe Illustrator 19.0.0, SVG Export Plug-In . SVG Version: 6.00 Build 0)  -->
<svg version="1.1" id="Layer_1" xmlns="http://www.w3.org/2000/svg" xmlns:xlink="http://www.w3.org/1999/xlink" x="0px" y="0px"
   viewBox="0 0 512.001 512.001" style="enable-background:new 0 0 512.001 512.001;" xml:space="preserve">
<path style="fill:#E4F5F4;" d="M11.632,267.524v-87.384c0,5.892,3.065,11.796,9.183,14.861l59.147,29.579l88.88,44.44l67.082,33.535
  c12.485,6.237,27.168,6.237,39.641,0l67.094-33.535l88.869-44.44l59.159-29.579c6.118-3.065,9.183-8.969,9.183-14.861v87.384
  l-61.677,30.827l-162.627,81.313c-12.473,6.237-27.156,6.237-39.641,0L73.297,298.351L11.632,267.524z"/>
<path style="fill:#31CCC9;" d="M490.686,165.28c6.118,3.065,9.183,8.957,9.183,14.861c0,5.892-3.065,11.796-9.183,14.861
  l-59.159,29.579l-88.869,44.44l-67.094,33.535c-12.473,6.237-27.156,6.237-39.641,0l-67.082-33.535l-88.88-44.44l-59.147-29.579
  c-6.118-3.065-9.183-8.969-9.183-14.861c0-0.036,0-0.059,0-0.095c0.036-5.868,3.1-11.713,9.183-14.766L235.924,57.713
  c12.485-6.225,27.168-6.225,39.641,0L490.686,165.28z"/>
<path style="fill:#E4F5F4;" d="M499.869,267.524v77.108l-61.677,30.839l-162.627,81.313c-12.473,6.225-27.156,6.225-39.641,0
  L73.297,375.471l-61.665-30.839v-77.108l61.665,30.827l162.627,81.313c12.485,6.237,27.168,6.237,39.641,0l162.627-81.313
  L499.869,267.524z"/>
<g>
  <path style="fill:#201F2E;" d="M494.807,255.646L270.515,367.792c-9.088,4.54-19.939,4.54-29.028,0L17.195,255.646
    c-5.868-2.935-13.004-0.557-15.938,5.314c-2.934,5.867-0.556,13.003,5.312,15.937l224.298,112.148c0,0,0.001,0,0.002,0.001
    c0,0,0.001,0.001,0.002,0.001c7.868,3.93,16.499,5.894,25.129,5.894c8.63,0,17.262-1.965,25.129-5.894
    c0.001,0,0.001-0.001,0.001-0.001c0.001-0.001,0.002-0.001,0.002-0.001l224.298-112.148c5.868-2.934,8.247-10.07,5.312-15.937
    C507.811,255.09,500.678,252.712,494.807,255.646z"/>
  <path style="fill:#201F2E;" d="M15.754,204.378l215.116,107.558c7.868,3.93,16.497,5.895,25.128,5.895
    c8.631,0,17.265-1.965,25.134-5.897l215.113-107.556c0.001-0.001,0.002-0.001,0.004-0.002c9.712-4.861,15.747-14.627,15.747-25.487
    s-6.035-20.625-15.751-25.488L281.132,45.842c-15.738-7.86-34.526-7.86-50.265,0.002L15.751,153.403
    c-9.712,4.861-15.747,14.627-15.747,25.486C0.004,189.75,6.038,199.515,15.754,204.378z M26.38,174.651L241.49,67.097
    c4.544-2.27,9.528-3.405,14.514-3.405c4.983,0,9.967,1.134,14.508,3.403L485.62,174.649c2.281,1.142,2.622,3.147,2.622,4.24
    c0,1.094-0.341,3.097-2.618,4.238L270.515,290.681c-9.088,4.539-19.939,4.539-29.025,0.002L26.384,183.13
    c-2.281-1.142-2.622-3.147-2.622-4.241C23.762,177.796,24.103,175.791,26.38,174.651z"/>
  <path style="fill:#201F2E;" d="M256.001,190.771c6.557,0,11.879-5.322,11.879-11.879c0-6.569-5.322-11.879-11.879-11.879
    s-11.879,5.31-11.879,11.879C244.122,185.448,249.444,190.771,256.001,190.771z"/>
  <path style="fill:#201F2E;" d="M494.807,332.758L270.511,444.905c-0.001,0.001-0.002,0.001-0.005,0.002
    c-9.083,4.533-19.926,4.533-29.009,0c-0.001-0.001-0.002-0.001-0.005-0.002L17.195,332.757c-5.867-2.934-13.004-0.557-15.938,5.312
    c-2.934,5.868-0.556,13.004,5.312,15.938l224.297,112.148c0.005,0.002,0.008,0.004,0.013,0.006
    c7.865,3.928,16.493,5.892,25.121,5.892c8.628,0,17.256-1.964,25.121-5.892c0.005-0.002,0.008-0.004,0.013-0.006l224.297-112.147
    c5.868-2.934,8.247-10.07,5.312-15.937C507.811,332.204,500.678,329.826,494.807,332.758z"/>
  <path style="fill:#201F2E;" d="M216.146,190.771c6.557,0,11.879-5.322,11.879-11.879c0-6.569-5.322-11.879-11.879-11.879
    s-11.879,5.31-11.879,11.879C204.267,185.448,209.589,190.771,216.146,190.771z"/>
  <path style="fill:#201F2E;" d="M295.856,190.771c6.557,0,11.879-5.322,11.879-11.879c0-6.569-5.322-11.879-11.879-11.879
    s-11.879,5.31-11.879,11.879C283.977,185.448,289.299,190.771,295.856,190.771z"/>
</g>
<g>
</g>
<g>
</g>
<g>
</g>
<g>
</g>
<g>
</g>
<g>
</g>
<g>
</g>
<g>
</g>
<g>
</g>
<g>
</g>
<g>
</g>
<g>
</g>
<g>
</g>
<g>
</g>
<g>
</g>
</svg>
