<?xml version="1.0" encoding="utf-8"?>
<!-- Generator: Adobe Illustrator 16.0.0, SVG Export Plug-In . SVG Version: 6.00 Build 0)  -->
<!DOCTYPE svg PUBLIC "-//W3C//DTD SVG 1.1//EN" "http://www.w3.org/Graphics/SVG/1.1/DTD/svg11.dtd">
<svg version="1.1" id="Layer_1" xmlns="http://www.w3.org/2000/svg" xmlns:xlink="http://www.w3.org/1999/xlink" x="0px" y="0px"
   width="22.676px" height="13.77px" viewBox="0 0 22.676 13.77" enable-background="new 0 0 22.676 13.77" xml:space="preserve">
<path fill="#272525" d="M22.534,6.882L20.245,5.32l2.8-4.102c0.24-0.351,0.328-0.773,0.25-1.191
  c-0.079-0.417-0.315-0.779-0.666-1.018c-0.265-0.181-0.574-0.277-0.896-0.277c-0.526,0-1.017,0.26-1.313,0.694l-2.8,4.102
  l-2.288-1.562c-0.266-0.181-0.574-0.276-0.895-0.276c-0.527,0-1.019,0.259-1.314,0.693c-0.239,0.35-0.327,0.773-0.249,1.19
  c0.079,0.417,0.315,0.779,0.666,1.019l0.214,0.146L6.314,11.41l6.048,3.128c0.728,0.376,1.542,0.574,2.355,0.574
  c1.935,0,3.687-1.067,4.571-2.787l1.451-2.819l0.002,0.001c0.265,0.182,0.574,0.276,0.896,0.276c0.524,0,1.017-0.259,1.313-0.693
  C23.444,8.367,23.257,7.376,22.534,6.882z M18.441,11.89c-0.721,1.401-2.147,2.271-3.724,2.271c-0.672,0-1.317-0.158-1.919-0.469
  l-0.935-0.482l1.245-1.928l-2.125,1.473l-0.838-0.434l1.583-2.596c0,0-1.889,1.43-2.71,2.013l-1.043-0.539l6.587-5.908l5.383,3.674
  L18.441,11.89z"/>
</svg>
