<?xml version="1.0" encoding="utf-8"?>
<!-- Generator: Adobe Illustrator 17.0.0, SVG Export Plug-In . SVG Version: 6.00 Build 0)  -->
<!DOCTYPE svg PUBLIC "-//W3C//DTD SVG 1.1//EN" "http://www.w3.org/Graphics/SVG/1.1/DTD/svg11.dtd">
<svg version="1.1" id="Layer_1" xmlns="http://www.w3.org/2000/svg" xmlns:xlink="http://www.w3.org/1999/xlink" x="0px" y="0px"
   width="40px" height="40px" viewBox="0 0 40 40" enable-background="new 0 0 40 40" xml:space="preserve">
<g>
  <path d="M23.622,38.216H5.523V1.784h18.099c0.77,0,1.392-0.623,1.392-1.392S24.391-1,23.622-1H2.738v42h20.883
    c0.77,0,1.392-0.623,1.392-1.392S24.391,38.216,23.622,38.216z"/>
  <path d="M36.096,18.104l-10.558-5.338c-1.412-0.713-3.074,0.315-3.077,1.893v3.948h-8.585c-0.77,0-1.392,0.623-1.392,1.392
    s0.623,1.392,1.392,1.392h8.585v3.94c0,1.587,1.665,2.612,3.074,1.893l10.561-5.34C37.65,21.103,37.65,18.889,36.096,18.104z"/>
</g>
</svg>
