<?xml version="1.0" encoding="utf-8"?>
<!-- Generator: Adobe Illustrator 17.0.0, SVG Export Plug-In . SVG Version: 6.00 Build 0)  -->
<!DOCTYPE svg PUBLIC "-//W3C//DTD SVG 1.1//EN" "http://www.w3.org/Graphics/SVG/1.1/DTD/svg11.dtd">
<svg version="1.1" id="Layer_1" xmlns="http://www.w3.org/2000/svg" xmlns:xlink="http://www.w3.org/1999/xlink" x="0px" y="0px"
   width="40px" height="40px" viewBox="0 0 40 40" enable-background="new 0 0 40 40" xml:space="preserve">
<path d="M35.222,12.758v-0.507C35.222,4.393,28.831-2,20.971-2h-1.942C11.169-2,4.776,4.393,4.776,12.251v1.416h0.002v12.079
  C4.778,33.603,11.171,40,19.031,40h1.942c7.86,0,14.251-6.397,14.251-14.253V12.758H35.222z M19.029,2.275h1.942
  c5.502,0,9.981,4.475,9.981,9.976v0.507H9.048v-0.507C9.048,6.75,13.525,2.275,19.029,2.275z M21.298,27.448v3.5H18.7v-3.493
  c-0.984-0.49-1.673-1.489-1.673-2.664c0-1.639,1.332-2.975,2.975-2.975c1.637,0,2.971,1.336,2.971,2.975
  C22.971,25.964,22.288,26.962,21.298,27.448z"/>
</svg>
