<?xml version="1.0" encoding="utf-8"?>
<!-- Generator: Adobe Illustrator 16.0.0, SVG Export Plug-In . SVG Version: 6.00 Build 0)  -->
<!DOCTYPE svg PUBLIC "-//W3C//DTD SVG 1.1//EN" "http://www.w3.org/Graphics/SVG/1.1/DTD/svg11.dtd">
<svg version="1.1" id="Layer_1" xmlns="http://www.w3.org/2000/svg" xmlns:xlink="http://www.w3.org/1999/xlink" x="0px" y="0px"
   width="20px" height="20px" viewBox="0 0 20 20" enable-background="new 0 0 20 20" xml:space="preserve">
<g>
  <path d="M17.923,9.269c-0.385-0.384-0.847-0.578-1.384-0.578h-0.651V6.075c0-0.273-0.072-0.572-0.208-0.898
    s-0.299-0.587-0.487-0.777l-1.556-1.553c-0.188-0.191-0.448-0.354-0.777-0.489c-0.324-0.137-0.624-0.204-0.898-0.204H5.098
    c-0.275,0-0.507,0.095-0.695,0.285c-0.193,0.19-0.285,0.423-0.285,0.696V8.69H3.461c-0.536,0-0.999,0.194-1.383,0.578
    C1.693,9.652,1.5,10.115,1.5,10.653v4.248c0,0.092,0.032,0.165,0.098,0.23c0.064,0.065,0.139,0.098,0.23,0.098h2.289v1.633
    c0,0.275,0.092,0.508,0.285,0.696c0.188,0.191,0.42,0.289,0.695,0.289h9.805c0.275,0,0.507-0.098,0.695-0.289
    c0.193-0.188,0.29-0.421,0.29-0.696v-1.633h2.285c0.091,0,0.165-0.032,0.229-0.098c0.066-0.065,0.098-0.139,0.098-0.23v-4.248
    C18.5,10.115,18.307,9.652,17.923,9.269L17.923,9.269z M14.578,16.538H5.422v-2.616h9.156V16.538z M14.578,10H5.422V3.461h6.539
    v1.633c0,0.273,0.097,0.506,0.285,0.696c0.193,0.191,0.425,0.285,0.695,0.285h1.637V10z M17,11.112
    c-0.13,0.131-0.282,0.195-0.461,0.195c-0.178,0-0.33-0.064-0.461-0.195c-0.129-0.128-0.19-0.282-0.19-0.459
    c0-0.178,0.062-0.33,0.19-0.461C16.209,10.064,16.361,10,16.539,10c0.179,0,0.331,0.064,0.461,0.192
    c0.127,0.131,0.191,0.283,0.191,0.461C17.191,10.83,17.127,10.984,17,11.112L17,11.112z M17,11.112"/>
</g>
</svg>
