<?xml version="1.0" encoding="utf-8"?>
<!-- Generator: Adobe Illustrator 17.0.0, SVG Export Plug-In . SVG Version: 6.00 Build 0)  -->
<!DOCTYPE svg PUBLIC "-//W3C//DTD SVG 1.1//EN" "http://www.w3.org/Graphics/SVG/1.1/DTD/svg11.dtd">
<svg version="1.1" id="Layer_1" xmlns="http://www.w3.org/2000/svg" xmlns:xlink="http://www.w3.org/1999/xlink" x="0px" y="0px"
   width="40px" height="40px" viewBox="0 0 40 40" enable-background="new 0 0 40 40" xml:space="preserve">
<g>
  <path d="M32.347,12.332c1.346,2.246,2.136,4.864,2.136,7.668c0,8.257-6.717,14.972-14.974,14.972v0.004h-1.462l2.497,2.495
    L17.013,41l-6.755-6.755c-0.974-0.974-0.974-2.552,0-3.529l6.755-6.757l3.531,3.529l-2.36,2.358
    c0.437,0.059,0.87,0.133,1.325,0.133c5.504,0,9.983-4.477,9.983-9.981c0-1.414-0.304-2.755-0.837-3.979L32.347,12.332z"/>
  <path d="M10.508,20c0-5.504,4.479-9.981,9.981-9.981c0.321,0,0.625,0.066,0.942,0.093l-2.404,2.4l3.531,3.529l6.753-6.757
    c0.974-0.974,0.974-2.552,0-3.529L22.558-1l-3.531,3.529l2.497,2.495h-1.462v0.023C12.004,5.275,5.517,11.886,5.517,19.998
    c0,2.696,0.727,5.217,1.973,7.404l3.736-3.733C10.776,22.531,10.508,21.299,10.508,20z"/>
</g>
</svg>
