<?xml version="1.0" encoding="utf-8"?>
<!-- Generator: Adobe Illustrator 17.0.0, SVG Export Plug-In . SVG Version: 6.00 Build 0)  -->
<!DOCTYPE svg PUBLIC "-//W3C//DTD SVG 1.1//EN" "http://www.w3.org/Graphics/SVG/1.1/DTD/svg11.dtd">
<svg version="1.1" id="Layer_1" xmlns="http://www.w3.org/2000/svg" xmlns:xlink="http://www.w3.org/1999/xlink" x="0px" y="0px"
   width="40px" height="40px" viewBox="0 0 40 40" enable-background="new 0 0 40 40" xml:space="preserve">
<path d="M22.504-3.208h-1.628c-6.573,0-11.92,5.348-11.92,11.92v1.184h3.574V8.712c0-4.604,3.746-8.346,8.346-8.346h1.628
  c4.6,0,8.346,3.743,8.346,8.346v7.293H8.956v10.866c0,6.573,5.348,11.92,11.92,11.92h1.628c6.573,0,11.92-5.348,11.92-11.92V16.708
  v-0.704V8.711C34.423,2.141,29.077-3.208,22.504-3.208z M22.775,28.293v2.925h-2.174v-2.922c-0.825-0.404-1.402-1.247-1.402-2.226
  c0-1.373,1.114-2.489,2.49-2.489c1.369,0,2.485,1.118,2.485,2.489C24.173,27.051,23.602,27.889,22.775,28.293z"/>
</svg>
